<svg xmlns="http://www.w3.org/2000/svg" xmlns:xlink="http://www.w3.org/1999/xlink" width="500" zoomAndPan="magnify" viewBox="0 0 375 374.999991" height="500" preserveAspectRatio="xMidYMid meet" version="1.0"><defs><g/><clipPath id="1216e50887"><rect x="0" width="291" y="0" height="85"/></clipPath></defs><rect x="-37.5" width="450" fill="#ffffff" y="-37.499999" height="449.999989" fill-opacity="1"/><rect x="-37.5" width="450" fill="#ffffff" y="-37.499999" height="449.999989" fill-opacity="1"/><g transform="matrix(1, 0, 0, 1, 43, 145)"><g clip-path="url(#1216e50887)"><g fill="#1d3557" fill-opacity="1"><g transform="translate(0.884567, 54.250818)"><g><path d="M 2.5 -40.984375 C 2.820312 -40.984375 3.195312 -40.945312 3.625 -40.875 C 4.050781 -40.8125 4.503906 -40.734375 4.984375 -40.640625 C 5.472656 -40.546875 5.976562 -40.445312 6.5 -40.34375 C 7.019531 -40.238281 7.546875 -40.15625 8.078125 -40.09375 C 8.953125 -39.96875 9.804688 -39.851562 10.640625 -39.75 C 11.484375 -39.65625 12.367188 -39.570312 13.296875 -39.5 C 14.222656 -39.4375 15.210938 -39.382812 16.265625 -39.34375 C 17.328125 -39.3125 18.5 -39.296875 19.78125 -39.296875 C 21.40625 -39.296875 22.773438 -39.347656 23.890625 -39.453125 C 25.003906 -39.554688 25.96875 -39.671875 26.78125 -39.796875 C 27.59375 -39.929688 28.300781 -40.050781 28.90625 -40.15625 C 29.507812 -40.269531 30.117188 -40.328125 30.734375 -40.328125 C 31.398438 -40.328125 31.835938 -40.171875 32.046875 -39.859375 C 32.265625 -39.554688 32.375 -39.128906 32.375 -38.578125 C 32.375 -38.078125 32.351562 -37.460938 32.3125 -36.734375 C 32.269531 -36.003906 32.207031 -35.25 32.125 -34.46875 C 32.050781 -33.6875 31.957031 -32.910156 31.84375 -32.140625 C 31.726562 -31.367188 31.601562 -30.675781 31.46875 -30.0625 C 31.34375 -29.445312 31.203125 -28.945312 31.046875 -28.5625 C 30.898438 -28.1875 30.75 -28.003906 30.59375 -28.015625 C 30.40625 -28.015625 30.273438 -28.332031 30.203125 -28.96875 C 30.140625 -29.601562 30.070312 -30.535156 30 -31.765625 C 29.945312 -32.660156 29.835938 -33.457031 29.671875 -34.15625 C 29.503906 -34.851562 29.25 -35.445312 28.90625 -35.9375 C 28.570312 -36.425781 28.140625 -36.820312 27.609375 -37.125 C 27.078125 -37.4375 26.410156 -37.660156 25.609375 -37.796875 C 24.953125 -37.921875 24.195312 -38 23.34375 -38.03125 C 22.5 -38.0625 21.625 -38.078125 20.71875 -38.078125 L 20.71875 -8.46875 C 20.71875 -6.84375 20.8125 -5.523438 21 -4.515625 C 21.195312 -3.503906 21.441406 -2.703125 21.734375 -2.109375 C 22.035156 -1.515625 22.363281 -1.085938 22.71875 -0.828125 C 23.082031 -0.566406 23.4375 -0.367188 23.78125 -0.234375 C 24.007812 -0.140625 24.28125 -0.0625 24.59375 0 C 24.914062 0.0625 25.253906 0.113281 25.609375 0.15625 C 25.960938 0.207031 26.3125 0.242188 26.65625 0.265625 C 27 0.285156 27.304688 0.304688 27.578125 0.328125 C 28.191406 0.359375 28.675781 0.398438 29.03125 0.453125 C 29.382812 0.515625 29.5625 0.675781 29.5625 0.9375 C 29.5625 1.050781 29.53125 1.160156 29.46875 1.265625 C 29.40625 1.367188 29.289062 1.460938 29.125 1.546875 C 28.957031 1.628906 28.710938 1.695312 28.390625 1.75 C 28.078125 1.8125 27.671875 1.84375 27.171875 1.84375 C 26.390625 1.84375 25.625 1.828125 24.875 1.796875 C 24.125 1.765625 23.367188 1.75 22.609375 1.75 C 21.441406 1.75 20.316406 1.828125 19.234375 1.984375 C 18.148438 2.140625 17.078125 2.378906 16.015625 2.703125 C 14.960938 3.023438 13.898438 3.425781 12.828125 3.90625 C 11.753906 4.394531 10.660156 4.957031 9.546875 5.59375 C 9.191406 5.8125 8.832031 6.007812 8.46875 6.1875 C 8.113281 6.363281 7.832031 6.453125 7.625 6.453125 C 7.425781 6.453125 7.328125 6.351562 7.328125 6.15625 C 7.328125 5.976562 7.441406 5.78125 7.671875 5.5625 C 7.910156 5.34375 8.222656 5.09375 8.609375 4.8125 C 8.992188 4.53125 9.429688 4.195312 9.921875 3.8125 C 10.421875 3.425781 10.9375 2.988281 11.46875 2.5 C 12.238281 1.78125 12.851562 1.066406 13.3125 0.359375 C 13.78125 -0.335938 14.148438 -1.066406 14.421875 -1.828125 C 14.691406 -2.597656 14.882812 -3.414062 15 -4.28125 C 15.113281 -5.144531 15.191406 -6.097656 15.234375 -7.140625 L 16.78125 -38.125 C 16.0625 -38.132812 15.457031 -38.144531 14.96875 -38.15625 C 14.488281 -38.164062 14.039062 -38.171875 13.625 -38.171875 C 13.21875 -38.171875 12.800781 -38.171875 12.375 -38.171875 C 11.957031 -38.171875 11.46875 -38.171875 10.90625 -38.171875 C 9.84375 -38.171875 8.941406 -38.117188 8.203125 -38.015625 C 7.472656 -37.910156 6.859375 -37.765625 6.359375 -37.578125 C 5.867188 -37.398438 5.484375 -37.171875 5.203125 -36.890625 C 4.929688 -36.609375 4.722656 -36.28125 4.578125 -35.90625 C 4.429688 -35.53125 4.34375 -35.113281 4.3125 -34.65625 C 4.28125 -34.195312 4.265625 -33.691406 4.265625 -33.140625 C 4.265625 -32.546875 4.296875 -31.929688 4.359375 -31.296875 C 4.429688 -30.660156 4.519531 -30.035156 4.625 -29.421875 C 4.738281 -28.804688 4.851562 -28.226562 4.96875 -27.6875 C 5.09375 -27.144531 5.21875 -26.660156 5.34375 -26.234375 C 5.457031 -25.835938 5.554688 -25.484375 5.640625 -25.171875 C 5.734375 -24.867188 5.78125 -24.609375 5.78125 -24.390625 C 5.78125 -24.316406 5.757812 -24.222656 5.71875 -24.109375 C 5.6875 -24.003906 5.601562 -23.953125 5.46875 -23.953125 C 5.257812 -23.953125 5.046875 -24.097656 4.828125 -24.390625 C 4.609375 -24.679688 4.390625 -25.066406 4.171875 -25.546875 C 3.960938 -26.035156 3.75 -26.582031 3.53125 -27.1875 C 3.320312 -27.800781 3.117188 -28.429688 2.921875 -29.078125 C 2.734375 -29.734375 2.554688 -30.378906 2.390625 -31.015625 C 2.222656 -31.648438 2.066406 -32.226562 1.921875 -32.75 C 1.585938 -34.050781 1.335938 -35.25 1.171875 -36.34375 C 1.015625 -37.445312 0.9375 -38.335938 0.9375 -39.015625 C 0.9375 -39.628906 1.039062 -40.109375 1.25 -40.453125 C 1.457031 -40.804688 1.875 -40.984375 2.5 -40.984375 Z M 2.5 -40.984375 "/></g></g></g><g fill="#1d3557" fill-opacity="1"><g transform="translate(31.409182, 54.250818)"><g><path d="M 10.53125 -50.28125 C 10.75 -50.28125 10.882812 -50.21875 10.9375 -50.09375 C 11 -49.976562 11.03125 -49.859375 11.03125 -49.734375 C 11.03125 -49.515625 11 -49.222656 10.9375 -48.859375 C 10.882812 -48.503906 10.8125 -48.03125 10.71875 -47.4375 C 10.625 -46.84375 10.519531 -46.101562 10.40625 -45.21875 C 10.289062 -44.34375 10.171875 -43.273438 10.046875 -42.015625 C 9.878906 -40.253906 9.726562 -38.476562 9.59375 -36.6875 C 9.46875 -34.90625 9.351562 -33.164062 9.25 -31.46875 C 9.15625 -29.769531 9.066406 -28.140625 8.984375 -26.578125 C 8.910156 -25.023438 8.847656 -23.597656 8.796875 -22.296875 C 8.742188 -21.003906 8.703125 -19.859375 8.671875 -18.859375 C 8.640625 -17.867188 8.617188 -17.082031 8.609375 -16.5 C 8.847656 -17.21875 9.175781 -17.9375 9.59375 -18.65625 C 10.019531 -19.375 10.53125 -20.023438 11.125 -20.609375 C 11.726562 -21.191406 12.414062 -21.660156 13.1875 -22.015625 C 13.96875 -22.378906 14.835938 -22.5625 15.796875 -22.5625 C 16.359375 -22.5625 16.953125 -22.488281 17.578125 -22.34375 C 18.203125 -22.195312 18.804688 -21.929688 19.390625 -21.546875 C 19.984375 -21.160156 20.519531 -20.644531 21 -20 C 21.488281 -19.351562 21.867188 -18.515625 22.140625 -17.484375 C 22.390625 -16.492188 22.546875 -15.519531 22.609375 -14.5625 C 22.671875 -13.601562 22.703125 -12.570312 22.703125 -11.46875 C 22.703125 -10.644531 22.6875 -9.726562 22.65625 -8.71875 C 22.625 -7.707031 22.609375 -6.679688 22.609375 -5.640625 C 22.609375 -4.953125 22.671875 -4.410156 22.796875 -4.015625 C 22.929688 -3.628906 23.113281 -3.335938 23.34375 -3.140625 C 23.582031 -2.941406 23.863281 -2.8125 24.1875 -2.75 C 24.519531 -2.6875 24.890625 -2.648438 25.296875 -2.640625 C 25.441406 -2.617188 25.59375 -2.601562 25.75 -2.59375 C 25.914062 -2.582031 26.0625 -2.550781 26.1875 -2.5 C 26.320312 -2.457031 26.429688 -2.390625 26.515625 -2.296875 C 26.597656 -2.203125 26.640625 -2.078125 26.640625 -1.921875 C 26.640625 -1.753906 26.554688 -1.601562 26.390625 -1.46875 C 26.222656 -1.332031 25.914062 -1.265625 25.46875 -1.265625 C 24.863281 -1.265625 24.195312 -1.335938 23.46875 -1.484375 C 22.738281 -1.628906 21.914062 -1.703125 21 -1.703125 C 20.414062 -1.703125 19.804688 -1.640625 19.171875 -1.515625 C 18.535156 -1.390625 17.921875 -1.253906 17.328125 -1.109375 C 16.742188 -0.960938 16.207031 -0.828125 15.71875 -0.703125 C 15.226562 -0.585938 14.847656 -0.53125 14.578125 -0.53125 C 14.328125 -0.53125 14.175781 -0.570312 14.125 -0.65625 C 14.070312 -0.738281 14.046875 -0.816406 14.046875 -0.890625 C 14.046875 -1.015625 14.09375 -1.109375 14.1875 -1.171875 C 14.28125 -1.242188 14.453125 -1.320312 14.703125 -1.40625 C 15.015625 -1.507812 15.285156 -1.609375 15.515625 -1.703125 C 15.753906 -1.796875 15.972656 -1.898438 16.171875 -2.015625 C 16.410156 -2.148438 16.628906 -2.375 16.828125 -2.6875 C 17.035156 -3.007812 17.191406 -3.519531 17.296875 -4.21875 C 17.347656 -4.601562 17.390625 -5.050781 17.421875 -5.5625 C 17.453125 -6.070312 17.476562 -6.613281 17.5 -7.1875 C 17.519531 -7.769531 17.535156 -8.363281 17.546875 -8.96875 C 17.566406 -9.582031 17.578125 -10.195312 17.578125 -10.8125 C 17.578125 -11.820312 17.5625 -12.773438 17.53125 -13.671875 C 17.5 -14.566406 17.4375 -15.300781 17.34375 -15.875 C 17.144531 -17.164062 16.773438 -18.1875 16.234375 -18.9375 C 15.703125 -19.6875 14.941406 -20.0625 13.953125 -20.0625 C 13.472656 -20.0625 13.046875 -19.96875 12.671875 -19.78125 C 12.304688 -19.59375 11.976562 -19.351562 11.6875 -19.0625 C 11.394531 -18.78125 11.132812 -18.453125 10.90625 -18.078125 C 10.675781 -17.710938 10.472656 -17.335938 10.296875 -16.953125 C 9.992188 -16.296875 9.703125 -15.453125 9.421875 -14.421875 C 9.148438 -13.398438 8.914062 -12.296875 8.71875 -11.109375 C 8.519531 -9.929688 8.363281 -8.722656 8.25 -7.484375 C 8.132812 -6.253906 8.078125 -5.109375 8.078125 -4.046875 C 8.078125 -3.535156 8.140625 -3.125 8.265625 -2.8125 C 8.390625 -2.5 8.566406 -2.242188 8.796875 -2.046875 C 9.035156 -1.859375 9.316406 -1.710938 9.640625 -1.609375 C 9.972656 -1.503906 10.347656 -1.40625 10.765625 -1.3125 C 10.972656 -1.257812 11.140625 -1.195312 11.265625 -1.125 C 11.398438 -1.0625 11.46875 -0.9375 11.46875 -0.75 C 11.46875 -0.40625 11.203125 -0.234375 10.671875 -0.234375 C 10.253906 -0.234375 9.75 -0.28125 9.15625 -0.375 C 8.570312 -0.476562 7.945312 -0.59375 7.28125 -0.71875 C 6.613281 -0.851562 5.929688 -0.96875 5.234375 -1.0625 C 4.546875 -1.164062 3.878906 -1.21875 3.234375 -1.21875 C 2.390625 -1.21875 1.640625 -1.175781 0.984375 -1.09375 C 0.328125 -1.019531 -0.238281 -0.984375 -0.71875 -0.984375 C -1.375 -0.984375 -1.703125 -1.191406 -1.703125 -1.609375 C -1.703125 -1.773438 -1.632812 -1.90625 -1.5 -2 C -1.375 -2.101562 -1.203125 -2.15625 -0.984375 -2.15625 C -0.847656 -2.15625 -0.6875 -2.144531 -0.5 -2.125 C -0.320312 -2.113281 -0.140625 -2.109375 0.046875 -2.109375 C 0.597656 -2.109375 1.070312 -2.171875 1.46875 -2.296875 C 1.863281 -2.429688 2.203125 -2.660156 2.484375 -2.984375 C 2.773438 -3.304688 3.019531 -3.738281 3.21875 -4.28125 C 3.414062 -4.820312 3.582031 -5.503906 3.71875 -6.328125 C 3.8125 -6.867188 3.914062 -7.6875 4.03125 -8.78125 C 4.144531 -9.882812 4.269531 -11.164062 4.40625 -12.625 C 4.539062 -14.09375 4.675781 -15.6875 4.8125 -17.40625 C 4.957031 -19.125 5.09375 -20.875 5.21875 -22.65625 C 5.351562 -24.445312 5.476562 -26.207031 5.59375 -27.9375 C 5.71875 -29.675781 5.820312 -31.296875 5.90625 -32.796875 C 5.988281 -34.296875 6.054688 -35.625 6.109375 -36.78125 C 6.171875 -37.9375 6.203125 -38.816406 6.203125 -39.421875 C 6.203125 -40.328125 6.117188 -41.039062 5.953125 -41.5625 C 5.796875 -42.09375 5.59375 -42.492188 5.34375 -42.765625 C 5.101562 -43.046875 4.832031 -43.222656 4.53125 -43.296875 C 4.226562 -43.378906 3.941406 -43.421875 3.671875 -43.421875 C 3.398438 -43.421875 3.101562 -43.394531 2.78125 -43.34375 C 2.457031 -43.289062 2.128906 -43.234375 1.796875 -43.171875 C 1.472656 -43.109375 1.15625 -43.050781 0.84375 -43 C 0.53125 -42.945312 0.234375 -42.921875 -0.046875 -42.921875 C -0.285156 -42.921875 -0.457031 -42.96875 -0.5625 -43.0625 C -0.664062 -43.164062 -0.71875 -43.300781 -0.71875 -43.46875 C -0.71875 -43.664062 -0.65625 -43.816406 -0.53125 -43.921875 C -0.40625 -44.023438 -0.210938 -44.125 0.046875 -44.21875 C 0.410156 -44.34375 0.804688 -44.46875 1.234375 -44.59375 C 1.660156 -44.71875 2.125 -44.863281 2.625 -45.03125 C 3.125 -45.207031 3.65625 -45.421875 4.21875 -45.671875 C 4.789062 -45.929688 5.40625 -46.253906 6.0625 -46.640625 C 6.8125 -47.066406 7.421875 -47.492188 7.890625 -47.921875 C 8.367188 -48.359375 8.765625 -48.75 9.078125 -49.09375 C 9.398438 -49.4375 9.664062 -49.71875 9.875 -49.9375 C 10.082031 -50.164062 10.300781 -50.28125 10.53125 -50.28125 Z M 10.53125 -50.28125 "/></g></g></g><g fill="#1d3557" fill-opacity="1"><g transform="translate(57.389531, 54.250818)"><g><path d="M 18.796875 -12.15625 C 19.003906 -11.8125 19.195312 -11.335938 19.375 -10.734375 C 19.550781 -10.140625 19.640625 -9.535156 19.640625 -8.921875 C 19.640625 -7.804688 19.457031 -6.804688 19.09375 -5.921875 C 18.726562 -5.046875 18.203125 -4.304688 17.515625 -3.703125 C 16.828125 -3.097656 15.992188 -2.632812 15.015625 -2.3125 C 14.046875 -2 12.957031 -1.84375 11.75 -1.84375 C 10.007812 -1.84375 8.453125 -2.132812 7.078125 -2.71875 C 5.710938 -3.3125 4.5625 -4.132812 3.625 -5.1875 C 2.6875 -6.238281 1.972656 -7.492188 1.484375 -8.953125 C 0.992188 -10.421875 0.75 -12.023438 0.75 -13.765625 C 0.75 -15.347656 0.914062 -16.78125 1.25 -18.0625 C 1.59375 -19.34375 2.054688 -20.488281 2.640625 -21.5 C 3.222656 -22.507812 3.894531 -23.390625 4.65625 -24.140625 C 5.425781 -24.890625 6.238281 -25.507812 7.09375 -26 C 7.945312 -26.488281 8.816406 -26.851562 9.703125 -27.09375 C 10.585938 -27.332031 11.445312 -27.453125 12.28125 -27.453125 C 13.09375 -27.453125 13.929688 -27.34375 14.796875 -27.125 C 15.671875 -26.914062 16.472656 -26.550781 17.203125 -26.03125 C 17.929688 -25.507812 18.523438 -24.820312 18.984375 -23.96875 C 19.453125 -23.125 19.6875 -22.054688 19.6875 -20.765625 C 19.6875 -19.648438 19.519531 -18.671875 19.1875 -17.828125 C 18.863281 -16.984375 18.429688 -16.253906 17.890625 -15.640625 C 17.359375 -15.035156 16.753906 -14.535156 16.078125 -14.140625 C 15.398438 -13.742188 14.703125 -13.425781 13.984375 -13.1875 C 13.273438 -12.945312 12.578125 -12.78125 11.890625 -12.6875 C 11.210938 -12.59375 10.613281 -12.546875 10.09375 -12.546875 C 9.34375 -12.546875 8.613281 -12.597656 7.90625 -12.703125 C 7.195312 -12.816406 6.644531 -12.9375 6.25 -13.0625 C 6.300781 -11.863281 6.484375 -10.707031 6.796875 -9.59375 C 7.117188 -8.488281 7.566406 -7.515625 8.140625 -6.671875 C 8.722656 -5.835938 9.445312 -5.164062 10.3125 -4.65625 C 11.175781 -4.15625 12.191406 -3.90625 13.359375 -3.90625 C 14.171875 -3.90625 14.867188 -4.039062 15.453125 -4.3125 C 16.046875 -4.59375 16.53125 -4.960938 16.90625 -5.421875 C 17.289062 -5.890625 17.570312 -6.429688 17.75 -7.046875 C 17.9375 -7.660156 18.03125 -8.300781 18.03125 -8.96875 C 18.03125 -9.363281 18.003906 -9.773438 17.953125 -10.203125 C 17.898438 -10.640625 17.804688 -11.046875 17.671875 -11.421875 C 17.578125 -11.648438 17.5 -11.863281 17.4375 -12.0625 C 17.375 -12.269531 17.34375 -12.429688 17.34375 -12.546875 C 17.34375 -12.859375 17.484375 -13.015625 17.765625 -13.015625 C 17.898438 -13.015625 18.0625 -12.941406 18.25 -12.796875 C 18.445312 -12.660156 18.628906 -12.445312 18.796875 -12.15625 Z M 6.15625 -14.578125 C 6.550781 -14.453125 7 -14.347656 7.5 -14.265625 C 8.007812 -14.179688 8.644531 -14.140625 9.40625 -14.140625 C 10.289062 -14.140625 11.109375 -14.304688 11.859375 -14.640625 C 12.609375 -14.972656 13.25 -15.441406 13.78125 -16.046875 C 14.320312 -16.648438 14.742188 -17.378906 15.046875 -18.234375 C 15.359375 -19.097656 15.515625 -20.054688 15.515625 -21.109375 C 15.515625 -22.046875 15.410156 -22.832031 15.203125 -23.46875 C 14.992188 -24.101562 14.722656 -24.609375 14.390625 -24.984375 C 14.054688 -25.367188 13.671875 -25.640625 13.234375 -25.796875 C 12.796875 -25.960938 12.347656 -26.046875 11.890625 -26.046875 C 11.304688 -26.046875 10.675781 -25.867188 10 -25.515625 C 9.332031 -25.160156 8.710938 -24.546875 8.140625 -23.671875 C 7.566406 -22.804688 7.09375 -21.632812 6.71875 -20.15625 C 6.34375 -18.6875 6.15625 -16.828125 6.15625 -14.578125 Z M 6.15625 -14.578125 "/></g></g><g transform="translate(77.792826, 54.250818)"><g/></g><g transform="translate(90.484639, 54.250818)"><g><path d="M 1.03125 -24.859375 C 1.382812 -24.972656 1.847656 -25.085938 2.421875 -25.203125 C 2.992188 -25.316406 3.546875 -25.4375 4.078125 -25.5625 C 5.171875 -25.820312 6.078125 -26.171875 6.796875 -26.609375 C 7.515625 -27.054688 8.117188 -27.601562 8.609375 -28.25 C 9.109375 -28.90625 9.535156 -29.65625 9.890625 -30.5 C 10.242188 -31.351562 10.597656 -32.328125 10.953125 -33.421875 C 11.253906 -34.367188 11.5625 -35.035156 11.875 -35.421875 C 12.1875 -35.804688 12.535156 -36 12.921875 -36 C 13.273438 -36 13.519531 -35.867188 13.65625 -35.609375 C 13.789062 -35.359375 13.859375 -35.015625 13.859375 -34.578125 C 13.859375 -34.171875 13.789062 -33.640625 13.65625 -32.984375 C 13.519531 -32.335938 13.363281 -31.65625 13.1875 -30.9375 C 13.007812 -30.21875 12.847656 -29.507812 12.703125 -28.8125 C 12.566406 -28.113281 12.5 -27.503906 12.5 -26.984375 C 12.5 -26.742188 12.550781 -26.523438 12.65625 -26.328125 C 12.757812 -26.140625 12.960938 -26.046875 13.265625 -26.046875 C 13.453125 -26.046875 13.675781 -26.0625 13.9375 -26.09375 C 14.195312 -26.125 14.46875 -26.15625 14.75 -26.1875 C 15.039062 -26.21875 15.34375 -26.25 15.65625 -26.28125 C 15.976562 -26.3125 16.273438 -26.328125 16.546875 -26.328125 C 17.203125 -26.328125 17.53125 -26.117188 17.53125 -25.703125 C 17.53125 -25.484375 17.445312 -25.328125 17.28125 -25.234375 C 17.113281 -25.148438 16.882812 -25.109375 16.59375 -25.109375 C 16.375 -25.109375 16.113281 -25.097656 15.8125 -25.078125 C 15.507812 -25.066406 15.179688 -25.035156 14.828125 -24.984375 C 14.472656 -24.929688 14.117188 -24.859375 13.765625 -24.765625 C 13.410156 -24.671875 13.082031 -24.546875 12.78125 -24.390625 C 12.351562 -24.179688 12.003906 -23.914062 11.734375 -23.59375 C 11.472656 -23.269531 11.253906 -22.941406 11.078125 -22.609375 C 10.816406 -22.066406 10.539062 -21.328125 10.25 -20.390625 C 9.96875 -19.460938 9.703125 -18.425781 9.453125 -17.28125 C 9.210938 -16.144531 9.007812 -14.953125 8.84375 -13.703125 C 8.6875 -12.460938 8.609375 -11.257812 8.609375 -10.09375 C 8.609375 -8.457031 8.742188 -7.050781 9.015625 -5.875 C 9.296875 -4.707031 9.679688 -3.742188 10.171875 -2.984375 C 10.660156 -2.222656 11.238281 -1.660156 11.90625 -1.296875 C 12.582031 -0.929688 13.3125 -0.75 14.09375 -0.75 C 14.707031 -0.75 15.226562 -0.835938 15.65625 -1.015625 C 16.082031 -1.191406 16.429688 -1.421875 16.703125 -1.703125 C 16.984375 -1.992188 17.179688 -2.3125 17.296875 -2.65625 C 17.421875 -3 17.484375 -3.335938 17.484375 -3.671875 C 17.484375 -4.085938 17.375 -4.4375 17.15625 -4.71875 C 16.9375 -5 16.6875 -5.269531 16.40625 -5.53125 C 16.132812 -5.789062 15.882812 -6.070312 15.65625 -6.375 C 15.4375 -6.6875 15.328125 -7.085938 15.328125 -7.578125 C 15.328125 -8.179688 15.519531 -8.691406 15.90625 -9.109375 C 16.300781 -9.523438 16.84375 -9.734375 17.53125 -9.734375 C 17.84375 -9.734375 18.140625 -9.675781 18.421875 -9.5625 C 18.703125 -9.457031 18.953125 -9.28125 19.171875 -9.03125 C 19.390625 -8.789062 19.566406 -8.484375 19.703125 -8.109375 C 19.847656 -7.734375 19.921875 -7.285156 19.921875 -6.765625 C 19.921875 -5.867188 19.78125 -4.972656 19.5 -4.078125 C 19.226562 -3.179688 18.789062 -2.375 18.1875 -1.65625 C 17.59375 -0.945312 16.820312 -0.367188 15.875 0.078125 C 14.925781 0.523438 13.773438 0.75 12.421875 0.75 C 10.890625 0.75 9.507812 0.4375 8.28125 -0.1875 C 7.0625 -0.820312 6.082031 -1.6875 5.34375 -2.78125 C 4.6875 -3.789062 4.203125 -4.929688 3.890625 -6.203125 C 3.585938 -7.484375 3.4375 -8.78125 3.4375 -10.09375 C 3.4375 -11.625 3.550781 -13.101562 3.78125 -14.53125 C 4.007812 -15.96875 4.257812 -17.269531 4.53125 -18.4375 C 4.8125 -19.613281 5.066406 -20.625 5.296875 -21.46875 C 5.523438 -22.320312 5.640625 -22.9375 5.640625 -23.3125 C 5.640625 -23.59375 5.5625 -23.757812 5.40625 -23.8125 C 5.257812 -23.875 5.054688 -23.90625 4.796875 -23.90625 C 4.640625 -23.90625 4.425781 -23.898438 4.15625 -23.890625 C 3.894531 -23.878906 3.601562 -23.863281 3.28125 -23.84375 C 2.957031 -23.832031 2.617188 -23.816406 2.265625 -23.796875 C 1.921875 -23.785156 1.585938 -23.78125 1.265625 -23.78125 C 0.691406 -23.78125 0.40625 -23.9375 0.40625 -24.25 C 0.40625 -24.507812 0.613281 -24.710938 1.03125 -24.859375 Z M 1.03125 -24.859375 "/></g></g></g><g fill="#1d3557" fill-opacity="1"><g transform="translate(108.914163, 54.250818)"><g><path d="M 8.75 -29.28125 C 8.75 -29.101562 8.738281 -28.847656 8.71875 -28.515625 C 8.707031 -28.179688 8.703125 -27.84375 8.703125 -27.5 C 8.703125 -27.050781 8.726562 -26.578125 8.78125 -26.078125 C 8.832031 -25.585938 8.898438 -25.128906 8.984375 -24.703125 C 9.066406 -24.285156 9.148438 -23.929688 9.234375 -23.640625 C 9.316406 -23.359375 9.390625 -23.21875 9.453125 -23.21875 C 9.515625 -23.21875 9.601562 -23.441406 9.71875 -23.890625 C 9.832031 -24.335938 10 -24.894531 10.21875 -25.5625 C 10.445312 -26.238281 10.734375 -26.960938 11.078125 -27.734375 C 11.429688 -28.503906 11.882812 -29.222656 12.4375 -29.890625 C 12.988281 -30.566406 13.648438 -31.128906 14.421875 -31.578125 C 15.191406 -32.023438 16.109375 -32.25 17.171875 -32.25 C 18.148438 -32.25 18.96875 -32.078125 19.625 -31.734375 C 20.289062 -31.398438 20.820312 -30.976562 21.21875 -30.46875 C 21.625 -29.96875 21.910156 -29.421875 22.078125 -28.828125 C 22.242188 -28.242188 22.328125 -27.691406 22.328125 -27.171875 C 22.328125 -26.359375 22.21875 -25.648438 22 -25.046875 C 21.789062 -24.441406 21.503906 -23.941406 21.140625 -23.546875 C 20.785156 -23.148438 20.378906 -22.847656 19.921875 -22.640625 C 19.460938 -22.429688 18.992188 -22.328125 18.515625 -22.328125 C 17.648438 -22.328125 16.941406 -22.53125 16.390625 -22.9375 C 15.835938 -23.351562 15.5625 -23.960938 15.5625 -24.765625 C 15.5625 -25.191406 15.617188 -25.554688 15.734375 -25.859375 C 15.847656 -26.171875 16 -26.429688 16.1875 -26.640625 C 16.382812 -26.859375 16.613281 -27.039062 16.875 -27.1875 C 17.144531 -27.332031 17.441406 -27.453125 17.765625 -27.546875 C 18.421875 -27.742188 18.867188 -27.984375 19.109375 -28.265625 C 19.347656 -28.554688 19.46875 -28.894531 19.46875 -29.28125 C 19.46875 -29.507812 19.421875 -29.726562 19.328125 -29.9375 C 19.242188 -30.15625 19.109375 -30.351562 18.921875 -30.53125 C 18.734375 -30.707031 18.488281 -30.847656 18.1875 -30.953125 C 17.882812 -31.066406 17.519531 -31.125 17.09375 -31.125 C 16.226562 -31.125 15.460938 -30.921875 14.796875 -30.515625 C 14.140625 -30.109375 13.566406 -29.5625 13.078125 -28.875 C 12.585938 -28.195312 12.179688 -27.414062 11.859375 -26.53125 C 11.546875 -25.644531 11.285156 -24.710938 11.078125 -23.734375 C 10.878906 -22.765625 10.738281 -21.785156 10.65625 -20.796875 C 10.570312 -19.816406 10.53125 -18.894531 10.53125 -18.03125 C 10.53125 -17.257812 10.5625 -16.414062 10.625 -15.5 C 10.6875 -14.59375 10.765625 -13.679688 10.859375 -12.765625 C 10.960938 -11.847656 11.078125 -10.953125 11.203125 -10.078125 C 11.328125 -9.203125 11.445312 -8.40625 11.5625 -7.6875 C 11.675781 -6.96875 11.773438 -6.347656 11.859375 -5.828125 C 11.953125 -5.304688 12.023438 -4.945312 12.078125 -4.75 C 12.242188 -4.0625 12.503906 -3.582031 12.859375 -3.3125 C 13.222656 -3.050781 13.703125 -2.921875 14.296875 -2.921875 C 14.554688 -2.921875 14.828125 -2.925781 15.109375 -2.9375 C 15.390625 -2.945312 15.601562 -2.953125 15.75 -2.953125 C 16.15625 -2.953125 16.359375 -2.800781 16.359375 -2.5 C 16.359375 -2.257812 16.242188 -2.097656 16.015625 -2.015625 C 15.835938 -1.941406 15.515625 -1.894531 15.046875 -1.875 C 14.578125 -1.863281 14.03125 -1.847656 13.40625 -1.828125 C 12.789062 -1.816406 12.125 -1.796875 11.40625 -1.765625 C 10.6875 -1.734375 9.988281 -1.679688 9.3125 -1.609375 C 8.5625 -1.515625 7.832031 -1.382812 7.125 -1.21875 C 6.425781 -1.0625 5.78125 -0.910156 5.1875 -0.765625 C 4.59375 -0.617188 4.066406 -0.492188 3.609375 -0.390625 C 3.148438 -0.285156 2.78125 -0.234375 2.5 -0.234375 C 2.207031 -0.234375 2.007812 -0.289062 1.90625 -0.40625 C 1.800781 -0.53125 1.75 -0.660156 1.75 -0.796875 C 1.75 -1.023438 1.84375 -1.191406 2.03125 -1.296875 C 2.21875 -1.398438 2.484375 -1.503906 2.828125 -1.609375 C 3.085938 -1.679688 3.394531 -1.757812 3.75 -1.84375 C 4.113281 -1.925781 4.539062 -2.078125 5.03125 -2.296875 C 5.519531 -2.503906 5.859375 -2.785156 6.046875 -3.140625 C 6.234375 -3.503906 6.328125 -4.054688 6.328125 -4.796875 C 6.328125 -5.023438 6.3125 -5.410156 6.28125 -5.953125 C 6.257812 -6.492188 6.21875 -7.140625 6.15625 -7.890625 C 6.101562 -8.640625 6.039062 -9.460938 5.96875 -10.359375 C 5.90625 -11.253906 5.832031 -12.171875 5.75 -13.109375 C 5.675781 -14.054688 5.597656 -14.992188 5.515625 -15.921875 C 5.429688 -16.859375 5.347656 -17.734375 5.265625 -18.546875 C 5.191406 -19.367188 5.117188 -20.097656 5.046875 -20.734375 C 4.984375 -21.378906 4.929688 -21.894531 4.890625 -22.28125 C 4.828125 -22.738281 4.734375 -23.101562 4.609375 -23.375 C 4.484375 -23.644531 4.335938 -23.847656 4.171875 -23.984375 C 4.003906 -24.117188 3.8125 -24.203125 3.59375 -24.234375 C 3.375 -24.273438 3.132812 -24.296875 2.875 -24.296875 L 1.921875 -24.296875 C 1.847656 -24.296875 1.753906 -24.300781 1.640625 -24.3125 C 1.523438 -24.320312 1.410156 -24.34375 1.296875 -24.375 C 1.191406 -24.414062 1.101562 -24.472656 1.03125 -24.546875 C 0.96875 -24.628906 0.9375 -24.734375 0.9375 -24.859375 C 0.9375 -25.023438 1.003906 -25.144531 1.140625 -25.21875 C 1.285156 -25.300781 1.457031 -25.351562 1.65625 -25.375 C 2.414062 -25.46875 3.101562 -25.597656 3.71875 -25.765625 C 4.34375 -25.941406 4.953125 -26.25 5.546875 -26.6875 C 5.921875 -26.976562 6.3125 -27.363281 6.71875 -27.84375 C 7.125 -28.332031 7.457031 -28.84375 7.71875 -29.375 C 7.894531 -29.757812 8.09375 -29.953125 8.3125 -29.953125 C 8.507812 -29.953125 8.628906 -29.875 8.671875 -29.71875 C 8.722656 -29.5625 8.75 -29.414062 8.75 -29.28125 Z M 8.75 -29.28125 "/></g></g><g transform="translate(128.376473, 54.250818)"><g><path d="M 7.09375 -16.546875 C 6.53125 -16.546875 6 -16.648438 5.5 -16.859375 C 5 -17.078125 4.566406 -17.398438 4.203125 -17.828125 C 3.835938 -18.253906 3.546875 -18.789062 3.328125 -19.4375 C 3.109375 -20.082031 3 -20.835938 3 -21.703125 C 3 -22.660156 3.132812 -23.59375 3.40625 -24.5 C 3.675781 -25.40625 4.09375 -26.210938 4.65625 -26.921875 C 5.226562 -27.640625 5.953125 -28.210938 6.828125 -28.640625 C 7.703125 -29.066406 8.757812 -29.28125 10 -29.28125 C 11.03125 -29.28125 11.9375 -29.144531 12.71875 -28.875 C 13.507812 -28.613281 14.203125 -28.253906 14.796875 -27.796875 C 15.398438 -27.347656 15.910156 -26.828125 16.328125 -26.234375 C 16.742188 -25.640625 17.097656 -25.015625 17.390625 -24.359375 C 17.679688 -23.710938 17.921875 -23.054688 18.109375 -22.390625 C 18.304688 -21.722656 18.472656 -21.09375 18.609375 -20.5 C 18.691406 -20.15625 18.789062 -19.671875 18.90625 -19.046875 C 19.019531 -18.429688 19.144531 -17.71875 19.28125 -16.90625 C 19.414062 -16.101562 19.554688 -15.238281 19.703125 -14.3125 C 19.859375 -13.382812 20.015625 -12.445312 20.171875 -11.5 C 20.328125 -10.550781 20.476562 -9.628906 20.625 -8.734375 C 20.769531 -7.835938 20.898438 -7.015625 21.015625 -6.265625 C 21.140625 -5.523438 21.242188 -4.890625 21.328125 -4.359375 C 21.410156 -3.835938 21.476562 -3.476562 21.53125 -3.28125 C 21.625 -2.8125 21.726562 -2.332031 21.84375 -1.84375 C 21.957031 -1.351562 22.097656 -0.90625 22.265625 -0.5 C 22.441406 -0.09375 22.660156 0.238281 22.921875 0.5 C 23.179688 0.757812 23.507812 0.890625 23.90625 0.890625 C 24.132812 0.890625 24.332031 0.835938 24.5 0.734375 C 24.675781 0.628906 24.8125 0.484375 24.90625 0.296875 C 25.007812 0.109375 25.082031 -0.0976562 25.125 -0.328125 C 25.175781 -0.554688 25.203125 -0.789062 25.203125 -1.03125 C 25.203125 -1.320312 25.191406 -1.613281 25.171875 -1.90625 C 25.160156 -2.207031 25.15625 -2.46875 25.15625 -2.6875 C 25.15625 -2.914062 25.1875 -3.113281 25.25 -3.28125 C 25.3125 -3.445312 25.429688 -3.53125 25.609375 -3.53125 C 25.773438 -3.53125 25.90625 -3.429688 26 -3.234375 C 26.101562 -3.046875 26.179688 -2.828125 26.234375 -2.578125 C 26.296875 -2.328125 26.332031 -2.078125 26.34375 -1.828125 C 26.363281 -1.578125 26.375 -1.390625 26.375 -1.265625 C 26.375 -0.722656 26.328125 -0.117188 26.234375 0.546875 C 26.140625 1.222656 25.945312 1.875 25.65625 2.5 C 25.382812 3.144531 24.925781 3.671875 24.28125 4.078125 C 23.632812 4.492188 22.890625 4.703125 22.046875 4.703125 C 21.316406 4.703125 20.6875 4.59375 20.15625 4.375 C 19.632812 4.164062 19.1875 3.898438 18.8125 3.578125 C 18.4375 3.253906 18.117188 2.910156 17.859375 2.546875 C 17.609375 2.179688 17.410156 1.835938 17.265625 1.515625 C 16.828125 0.691406 16.5 -0.210938 16.28125 -1.203125 C 16.0625 -2.191406 15.882812 -3.140625 15.75 -4.046875 C 15.519531 -3.660156 15.171875 -3.179688 14.703125 -2.609375 C 14.234375 -2.046875 13.65625 -1.503906 12.96875 -0.984375 C 12.28125 -0.460938 11.484375 -0.0195312 10.578125 0.34375 C 9.671875 0.707031 8.671875 0.890625 7.578125 0.890625 C 6.347656 0.890625 5.300781 0.71875 4.4375 0.375 C 3.570312 0.03125 2.863281 -0.429688 2.3125 -1.015625 C 1.757812 -1.609375 1.351562 -2.296875 1.09375 -3.078125 C 0.84375 -3.867188 0.71875 -4.707031 0.71875 -5.59375 C 0.71875 -6.539062 0.890625 -7.5 1.234375 -8.46875 C 1.585938 -9.4375 2.164062 -10.304688 2.96875 -11.078125 C 3.769531 -11.859375 4.816406 -12.492188 6.109375 -12.984375 C 7.410156 -13.472656 8.992188 -13.71875 10.859375 -13.71875 C 11.285156 -13.71875 11.703125 -13.695312 12.109375 -13.65625 C 12.515625 -13.625 12.878906 -13.582031 13.203125 -13.53125 C 13.535156 -13.488281 13.816406 -13.441406 14.046875 -13.390625 C 14.285156 -13.347656 14.460938 -13.320312 14.578125 -13.3125 C 14.484375 -14.625 14.367188 -15.941406 14.234375 -17.265625 C 14.171875 -17.804688 14.101562 -18.382812 14.03125 -19 C 13.96875 -19.613281 13.894531 -20.226562 13.8125 -20.84375 C 13.738281 -21.46875 13.65625 -22.078125 13.5625 -22.671875 C 13.46875 -23.265625 13.367188 -23.820312 13.265625 -24.34375 C 13.015625 -25.519531 12.535156 -26.457031 11.828125 -27.15625 C 11.117188 -27.851562 10.210938 -28.203125 9.109375 -28.203125 C 8.515625 -28.203125 7.988281 -28.09375 7.53125 -27.875 C 7.082031 -27.664062 6.703125 -27.390625 6.390625 -27.046875 C 6.078125 -26.710938 5.84375 -26.335938 5.6875 -25.921875 C 5.539062 -25.503906 5.46875 -25.085938 5.46875 -24.671875 C 5.46875 -24.222656 5.570312 -23.847656 5.78125 -23.546875 C 6 -23.253906 6.265625 -22.992188 6.578125 -22.765625 C 6.890625 -22.535156 7.226562 -22.316406 7.59375 -22.109375 C 7.957031 -21.898438 8.296875 -21.660156 8.609375 -21.390625 C 8.929688 -21.128906 9.195312 -20.8125 9.40625 -20.4375 C 9.625 -20.0625 9.734375 -19.59375 9.734375 -19.03125 C 9.734375 -18.28125 9.472656 -17.675781 8.953125 -17.21875 C 8.441406 -16.769531 7.820312 -16.546875 7.09375 -16.546875 Z M 14.75 -11.890625 C 14.644531 -11.929688 14.457031 -11.984375 14.1875 -12.046875 C 13.925781 -12.117188 13.609375 -12.191406 13.234375 -12.265625 C 12.867188 -12.335938 12.472656 -12.394531 12.046875 -12.4375 C 11.628906 -12.476562 11.21875 -12.5 10.8125 -12.5 C 10 -12.5 9.242188 -12.382812 8.546875 -12.15625 C 7.847656 -11.925781 7.242188 -11.585938 6.734375 -11.140625 C 6.234375 -10.691406 5.835938 -10.125 5.546875 -9.4375 C 5.265625 -8.757812 5.125 -7.976562 5.125 -7.09375 C 5.125 -6.28125 5.253906 -5.609375 5.515625 -5.078125 C 5.785156 -4.554688 6.128906 -4.140625 6.546875 -3.828125 C 6.972656 -3.523438 7.441406 -3.3125 7.953125 -3.1875 C 8.460938 -3.0625 8.960938 -3 9.453125 -3 C 10.234375 -3 10.972656 -3.117188 11.671875 -3.359375 C 12.378906 -3.609375 13 -3.894531 13.53125 -4.21875 C 14.070312 -4.539062 14.507812 -4.851562 14.84375 -5.15625 C 15.1875 -5.46875 15.394531 -5.675781 15.46875 -5.78125 C 15.363281 -6.8125 15.265625 -7.742188 15.171875 -8.578125 C 15.117188 -8.953125 15.070312 -9.3125 15.03125 -9.65625 C 15 -10.007812 14.960938 -10.335938 14.921875 -10.640625 C 14.890625 -10.953125 14.859375 -11.210938 14.828125 -11.421875 C 14.796875 -11.640625 14.769531 -11.796875 14.75 -11.890625 Z M 14.75 -11.890625 "/></g></g></g><g fill="#1d3557" fill-opacity="1"><g transform="translate(148.665014, 54.250818)"><g><path d="M 13.0625 -27.125 C 13.0625 -26.957031 12.992188 -26.816406 12.859375 -26.703125 C 12.734375 -26.597656 12.554688 -26.457031 12.328125 -26.28125 C 12.035156 -26.0625 11.773438 -25.816406 11.546875 -25.546875 C 11.328125 -25.285156 11.21875 -24.929688 11.21875 -24.484375 C 11.21875 -24.085938 11.296875 -23.535156 11.453125 -22.828125 C 11.617188 -22.128906 11.835938 -21.34375 12.109375 -20.46875 C 12.390625 -19.59375 12.707031 -18.660156 13.0625 -17.671875 C 13.414062 -16.691406 13.773438 -15.707031 14.140625 -14.71875 C 14.503906 -13.726562 14.867188 -12.769531 15.234375 -11.84375 C 15.609375 -10.925781 15.945312 -10.097656 16.25 -9.359375 C 16.550781 -8.628906 16.804688 -8.007812 17.015625 -7.5 C 17.234375 -7 17.375 -6.679688 17.4375 -6.546875 C 17.65625 -6.035156 17.867188 -5.78125 18.078125 -5.78125 C 18.203125 -5.78125 18.300781 -5.832031 18.375 -5.9375 C 18.457031 -6.050781 18.519531 -6.164062 18.5625 -6.28125 C 18.613281 -6.40625 18.71875 -6.734375 18.875 -7.265625 C 19.03125 -7.804688 19.21875 -8.457031 19.4375 -9.21875 C 19.65625 -9.988281 19.882812 -10.820312 20.125 -11.71875 C 20.375 -12.625 20.597656 -13.503906 20.796875 -14.359375 C 20.992188 -15.222656 21.15625 -16.015625 21.28125 -16.734375 C 21.414062 -17.453125 21.484375 -18.015625 21.484375 -18.421875 C 21.484375 -18.671875 21.453125 -18.875 21.390625 -19.03125 C 21.335938 -19.195312 21.257812 -19.328125 21.15625 -19.421875 C 21.0625 -19.523438 20.953125 -19.601562 20.828125 -19.65625 C 20.710938 -19.707031 20.585938 -19.75 20.453125 -19.78125 C 20.265625 -19.820312 20.019531 -19.851562 19.71875 -19.875 C 19.425781 -19.90625 19.140625 -19.941406 18.859375 -19.984375 C 18.585938 -20.035156 18.351562 -20.101562 18.15625 -20.1875 C 17.957031 -20.269531 17.859375 -20.398438 17.859375 -20.578125 C 17.859375 -20.796875 17.960938 -20.929688 18.171875 -20.984375 C 18.390625 -21.035156 18.613281 -21.0625 18.84375 -21.0625 C 19.082031 -21.0625 19.507812 -21.023438 20.125 -20.953125 C 20.738281 -20.890625 21.566406 -20.859375 22.609375 -20.859375 C 22.910156 -20.859375 23.265625 -20.882812 23.671875 -20.9375 C 24.085938 -20.988281 24.503906 -21.050781 24.921875 -21.125 C 25.347656 -21.195312 25.75 -21.257812 26.125 -21.3125 C 26.5 -21.363281 26.800781 -21.390625 27.03125 -21.390625 C 27.257812 -21.390625 27.460938 -21.363281 27.640625 -21.3125 C 27.828125 -21.269531 27.921875 -21.164062 27.921875 -21 C 27.921875 -20.875 27.851562 -20.769531 27.71875 -20.6875 C 27.582031 -20.601562 27.40625 -20.523438 27.1875 -20.453125 C 26.976562 -20.390625 26.738281 -20.332031 26.46875 -20.28125 C 26.207031 -20.238281 25.9375 -20.1875 25.65625 -20.125 C 25.320312 -20.050781 25.039062 -19.945312 24.8125 -19.8125 C 24.582031 -19.6875 24.390625 -19.535156 24.234375 -19.359375 C 24.078125 -19.191406 23.945312 -19.007812 23.84375 -18.8125 C 23.738281 -18.613281 23.640625 -18.410156 23.546875 -18.203125 C 23.328125 -17.648438 23.125 -17.085938 22.9375 -16.515625 C 22.75 -15.941406 22.539062 -15.285156 22.3125 -14.546875 C 22.082031 -13.816406 21.820312 -12.976562 21.53125 -12.03125 C 21.238281 -11.09375 20.894531 -9.984375 20.5 -8.703125 C 20.40625 -8.421875 20.265625 -7.984375 20.078125 -7.390625 C 19.898438 -6.804688 19.6875 -6.144531 19.4375 -5.40625 C 19.195312 -4.675781 18.941406 -3.921875 18.671875 -3.140625 C 18.398438 -2.359375 18.132812 -1.640625 17.875 -0.984375 C 17.613281 -0.335938 17.375 0.1875 17.15625 0.59375 C 16.945312 1.007812 16.773438 1.21875 16.640625 1.21875 C 16.484375 1.21875 16.238281 0.957031 15.90625 0.4375 C 15.582031 -0.0820312 15.191406 -0.773438 14.734375 -1.640625 C 14.273438 -2.503906 13.773438 -3.5 13.234375 -4.625 C 12.691406 -5.757812 12.128906 -6.945312 11.546875 -8.1875 C 10.972656 -9.425781 10.398438 -10.671875 9.828125 -11.921875 C 9.253906 -13.179688 8.71875 -14.363281 8.21875 -15.46875 C 7.726562 -16.582031 7.28125 -17.578125 6.875 -18.453125 C 6.46875 -19.328125 6.148438 -20.007812 5.921875 -20.5 C 5.734375 -20.894531 5.539062 -21.210938 5.34375 -21.453125 C 5.144531 -21.703125 4.941406 -21.894531 4.734375 -22.03125 C 4.523438 -22.164062 4.3125 -22.253906 4.09375 -22.296875 C 3.882812 -22.347656 3.679688 -22.375 3.484375 -22.375 C 3.253906 -22.375 3.007812 -22.332031 2.75 -22.25 C 2.488281 -22.175781 2.238281 -22.085938 2 -21.984375 C 1.769531 -21.890625 1.539062 -21.804688 1.3125 -21.734375 C 1.09375 -21.660156 0.90625 -21.625 0.75 -21.625 C 0.632812 -21.625 0.519531 -21.660156 0.40625 -21.734375 C 0.289062 -21.804688 0.234375 -21.925781 0.234375 -22.09375 C 0.234375 -22.300781 0.347656 -22.457031 0.578125 -22.5625 C 0.804688 -22.6875 1.164062 -22.832031 1.65625 -23 C 2.144531 -23.164062 2.695312 -23.351562 3.3125 -23.5625 C 3.9375 -23.78125 4.582031 -24.015625 5.25 -24.265625 C 5.925781 -24.515625 6.570312 -24.78125 7.1875 -25.0625 C 7.9375 -25.394531 8.585938 -25.710938 9.140625 -26.015625 C 9.703125 -26.328125 10.195312 -26.597656 10.625 -26.828125 C 11.050781 -27.054688 11.414062 -27.238281 11.71875 -27.375 C 12.03125 -27.507812 12.304688 -27.578125 12.546875 -27.578125 C 12.734375 -27.578125 12.863281 -27.53125 12.9375 -27.4375 C 13.019531 -27.351562 13.0625 -27.25 13.0625 -27.125 Z M 13.0625 -27.125 "/></g></g></g><g fill="#1d3557" fill-opacity="1"><g transform="translate(175.93061, 54.250818)"><g><path d="M 18.796875 -12.15625 C 19.003906 -11.8125 19.195312 -11.335938 19.375 -10.734375 C 19.550781 -10.140625 19.640625 -9.535156 19.640625 -8.921875 C 19.640625 -7.804688 19.457031 -6.804688 19.09375 -5.921875 C 18.726562 -5.046875 18.203125 -4.304688 17.515625 -3.703125 C 16.828125 -3.097656 15.992188 -2.632812 15.015625 -2.3125 C 14.046875 -2 12.957031 -1.84375 11.75 -1.84375 C 10.007812 -1.84375 8.453125 -2.132812 7.078125 -2.71875 C 5.710938 -3.3125 4.5625 -4.132812 3.625 -5.1875 C 2.6875 -6.238281 1.972656 -7.492188 1.484375 -8.953125 C 0.992188 -10.421875 0.75 -12.023438 0.75 -13.765625 C 0.75 -15.347656 0.914062 -16.78125 1.25 -18.0625 C 1.59375 -19.34375 2.054688 -20.488281 2.640625 -21.5 C 3.222656 -22.507812 3.894531 -23.390625 4.65625 -24.140625 C 5.425781 -24.890625 6.238281 -25.507812 7.09375 -26 C 7.945312 -26.488281 8.816406 -26.851562 9.703125 -27.09375 C 10.585938 -27.332031 11.445312 -27.453125 12.28125 -27.453125 C 13.09375 -27.453125 13.929688 -27.34375 14.796875 -27.125 C 15.671875 -26.914062 16.472656 -26.550781 17.203125 -26.03125 C 17.929688 -25.507812 18.523438 -24.820312 18.984375 -23.96875 C 19.453125 -23.125 19.6875 -22.054688 19.6875 -20.765625 C 19.6875 -19.648438 19.519531 -18.671875 19.1875 -17.828125 C 18.863281 -16.984375 18.429688 -16.253906 17.890625 -15.640625 C 17.359375 -15.035156 16.753906 -14.535156 16.078125 -14.140625 C 15.398438 -13.742188 14.703125 -13.425781 13.984375 -13.1875 C 13.273438 -12.945312 12.578125 -12.78125 11.890625 -12.6875 C 11.210938 -12.59375 10.613281 -12.546875 10.09375 -12.546875 C 9.34375 -12.546875 8.613281 -12.597656 7.90625 -12.703125 C 7.195312 -12.816406 6.644531 -12.9375 6.25 -13.0625 C 6.300781 -11.863281 6.484375 -10.707031 6.796875 -9.59375 C 7.117188 -8.488281 7.566406 -7.515625 8.140625 -6.671875 C 8.722656 -5.835938 9.445312 -5.164062 10.3125 -4.65625 C 11.175781 -4.15625 12.191406 -3.90625 13.359375 -3.90625 C 14.171875 -3.90625 14.867188 -4.039062 15.453125 -4.3125 C 16.046875 -4.59375 16.53125 -4.960938 16.90625 -5.421875 C 17.289062 -5.890625 17.570312 -6.429688 17.75 -7.046875 C 17.9375 -7.660156 18.03125 -8.300781 18.03125 -8.96875 C 18.03125 -9.363281 18.003906 -9.773438 17.953125 -10.203125 C 17.898438 -10.640625 17.804688 -11.046875 17.671875 -11.421875 C 17.578125 -11.648438 17.5 -11.863281 17.4375 -12.0625 C 17.375 -12.269531 17.34375 -12.429688 17.34375 -12.546875 C 17.34375 -12.859375 17.484375 -13.015625 17.765625 -13.015625 C 17.898438 -13.015625 18.0625 -12.941406 18.25 -12.796875 C 18.445312 -12.660156 18.628906 -12.445312 18.796875 -12.15625 Z M 6.15625 -14.578125 C 6.550781 -14.453125 7 -14.347656 7.5 -14.265625 C 8.007812 -14.179688 8.644531 -14.140625 9.40625 -14.140625 C 10.289062 -14.140625 11.109375 -14.304688 11.859375 -14.640625 C 12.609375 -14.972656 13.25 -15.441406 13.78125 -16.046875 C 14.320312 -16.648438 14.742188 -17.378906 15.046875 -18.234375 C 15.359375 -19.097656 15.515625 -20.054688 15.515625 -21.109375 C 15.515625 -22.046875 15.410156 -22.832031 15.203125 -23.46875 C 14.992188 -24.101562 14.722656 -24.609375 14.390625 -24.984375 C 14.054688 -25.367188 13.671875 -25.640625 13.234375 -25.796875 C 12.796875 -25.960938 12.347656 -26.046875 11.890625 -26.046875 C 11.304688 -26.046875 10.675781 -25.867188 10 -25.515625 C 9.332031 -25.160156 8.710938 -24.546875 8.140625 -23.671875 C 7.566406 -22.804688 7.09375 -21.632812 6.71875 -20.15625 C 6.34375 -18.6875 6.15625 -16.828125 6.15625 -14.578125 Z M 6.15625 -14.578125 "/></g></g></g><g fill="#1d3557" fill-opacity="1"><g transform="translate(193.74046, 54.250818)"><g><path d="M 10.140625 -42.921875 C 10.140625 -42.742188 10.140625 -42.34375 10.140625 -41.71875 C 10.140625 -41.09375 10.144531 -40.34375 10.15625 -39.46875 C 10.164062 -38.601562 10.171875 -37.671875 10.171875 -36.671875 C 10.179688 -35.679688 10.203125 -34.722656 10.234375 -33.796875 C 10.265625 -32.515625 10.316406 -31.03125 10.390625 -29.34375 C 10.472656 -27.664062 10.554688 -25.921875 10.640625 -24.109375 C 10.722656 -22.296875 10.8125 -20.46875 10.90625 -18.625 C 11.007812 -16.789062 11.109375 -15.070312 11.203125 -13.46875 C 11.304688 -11.875 11.394531 -10.457031 11.46875 -9.21875 C 11.550781 -7.976562 11.613281 -7.039062 11.65625 -6.40625 C 11.71875 -5.5 11.835938 -4.785156 12.015625 -4.265625 C 12.203125 -3.742188 12.457031 -3.332031 12.78125 -3.03125 C 13.113281 -2.726562 13.53125 -2.488281 14.03125 -2.3125 C 14.53125 -2.144531 15.128906 -1.972656 15.828125 -1.796875 C 16.085938 -1.710938 16.253906 -1.625 16.328125 -1.53125 C 16.410156 -1.445312 16.453125 -1.34375 16.453125 -1.21875 C 16.453125 -1.082031 16.398438 -0.960938 16.296875 -0.859375 C 16.191406 -0.765625 15.992188 -0.71875 15.703125 -0.71875 C 15.554688 -0.71875 15.273438 -0.726562 14.859375 -0.75 C 14.441406 -0.78125 13.945312 -0.816406 13.375 -0.859375 C 12.8125 -0.910156 12.195312 -0.953125 11.53125 -0.984375 C 10.863281 -1.015625 10.21875 -1.03125 9.59375 -1.03125 C 9.082031 -1.03125 8.546875 -1.003906 7.984375 -0.953125 C 7.421875 -0.910156 6.867188 -0.863281 6.328125 -0.8125 C 5.796875 -0.769531 5.296875 -0.726562 4.828125 -0.6875 C 4.359375 -0.644531 3.972656 -0.625 3.671875 -0.625 C 3.453125 -0.625 3.238281 -0.660156 3.03125 -0.734375 C 2.832031 -0.804688 2.734375 -0.984375 2.734375 -1.265625 C 2.734375 -1.671875 3.03125 -1.875 3.625 -1.875 C 4.019531 -1.875 4.46875 -1.894531 4.96875 -1.9375 C 5.46875 -1.988281 5.878906 -2.078125 6.203125 -2.203125 C 6.460938 -2.296875 6.664062 -2.425781 6.8125 -2.59375 C 6.96875 -2.757812 7.085938 -2.945312 7.171875 -3.15625 C 7.253906 -3.363281 7.3125 -3.578125 7.34375 -3.796875 C 7.375 -4.015625 7.390625 -4.238281 7.390625 -4.46875 C 7.390625 -4.75 7.367188 -5.191406 7.328125 -5.796875 C 7.296875 -6.398438 7.25 -7.109375 7.1875 -7.921875 C 7.125 -8.734375 7.050781 -9.628906 6.96875 -10.609375 C 6.882812 -11.585938 6.796875 -12.59375 6.703125 -13.625 C 6.609375 -14.65625 6.515625 -15.679688 6.421875 -16.703125 C 6.328125 -17.734375 6.234375 -18.707031 6.140625 -19.625 C 6.054688 -20.539062 5.976562 -21.375 5.90625 -22.125 C 5.84375 -22.875 5.785156 -23.484375 5.734375 -23.953125 C 5.660156 -24.660156 5.582031 -25.390625 5.5 -26.140625 C 5.425781 -26.898438 5.347656 -27.644531 5.265625 -28.375 C 5.191406 -29.113281 5.109375 -29.820312 5.015625 -30.5 C 4.929688 -31.175781 4.84375 -31.785156 4.75 -32.328125 C 4.65625 -32.867188 4.5 -33.285156 4.28125 -33.578125 C 4.0625 -33.878906 3.726562 -34.03125 3.28125 -34.03125 C 2.925781 -34.03125 2.515625 -33.945312 2.046875 -33.78125 C 1.585938 -33.613281 1.117188 -33.429688 0.640625 -33.234375 C 0.171875 -33.035156 -0.269531 -32.847656 -0.6875 -32.671875 C -1.113281 -32.503906 -1.453125 -32.421875 -1.703125 -32.421875 C -1.867188 -32.421875 -2.015625 -32.460938 -2.140625 -32.546875 C -2.273438 -32.640625 -2.34375 -32.789062 -2.34375 -33 C -2.34375 -33.289062 -2.1875 -33.535156 -1.875 -33.734375 C -1.738281 -33.835938 -1.554688 -33.941406 -1.328125 -34.046875 C -1.097656 -34.160156 -0.796875 -34.3125 -0.421875 -34.5 C -0.046875 -34.695312 0.414062 -34.953125 0.96875 -35.265625 C 1.519531 -35.585938 2.179688 -36.019531 2.953125 -36.5625 C 3.785156 -37.125 4.535156 -37.71875 5.203125 -38.34375 C 5.878906 -38.976562 6.476562 -39.585938 7 -40.171875 C 7.53125 -40.765625 7.972656 -41.304688 8.328125 -41.796875 C 8.691406 -42.285156 8.96875 -42.675781 9.15625 -42.96875 C 9.320312 -43.195312 9.453125 -43.378906 9.546875 -43.515625 C 9.640625 -43.648438 9.75 -43.71875 9.875 -43.71875 C 9.988281 -43.71875 10.0625 -43.628906 10.09375 -43.453125 C 10.125 -43.273438 10.140625 -43.097656 10.140625 -42.921875 Z M 10.140625 -42.921875 "/></g></g><g transform="translate(210.379818, 54.250818)"><g/></g><g transform="translate(223.071632, 54.250818)"><g><path d="M 1.03125 -24.859375 C 1.382812 -24.972656 1.847656 -25.085938 2.421875 -25.203125 C 2.992188 -25.316406 3.546875 -25.4375 4.078125 -25.5625 C 5.171875 -25.820312 6.078125 -26.171875 6.796875 -26.609375 C 7.515625 -27.054688 8.117188 -27.601562 8.609375 -28.25 C 9.109375 -28.90625 9.535156 -29.65625 9.890625 -30.5 C 10.242188 -31.351562 10.597656 -32.328125 10.953125 -33.421875 C 11.253906 -34.367188 11.5625 -35.035156 11.875 -35.421875 C 12.1875 -35.804688 12.535156 -36 12.921875 -36 C 13.273438 -36 13.519531 -35.867188 13.65625 -35.609375 C 13.789062 -35.359375 13.859375 -35.015625 13.859375 -34.578125 C 13.859375 -34.171875 13.789062 -33.640625 13.65625 -32.984375 C 13.519531 -32.335938 13.363281 -31.65625 13.1875 -30.9375 C 13.007812 -30.21875 12.847656 -29.507812 12.703125 -28.8125 C 12.566406 -28.113281 12.5 -27.503906 12.5 -26.984375 C 12.5 -26.742188 12.550781 -26.523438 12.65625 -26.328125 C 12.757812 -26.140625 12.960938 -26.046875 13.265625 -26.046875 C 13.453125 -26.046875 13.675781 -26.0625 13.9375 -26.09375 C 14.195312 -26.125 14.46875 -26.15625 14.75 -26.1875 C 15.039062 -26.21875 15.34375 -26.25 15.65625 -26.28125 C 15.976562 -26.3125 16.273438 -26.328125 16.546875 -26.328125 C 17.203125 -26.328125 17.53125 -26.117188 17.53125 -25.703125 C 17.53125 -25.484375 17.445312 -25.328125 17.28125 -25.234375 C 17.113281 -25.148438 16.882812 -25.109375 16.59375 -25.109375 C 16.375 -25.109375 16.113281 -25.097656 15.8125 -25.078125 C 15.507812 -25.066406 15.179688 -25.035156 14.828125 -24.984375 C 14.472656 -24.929688 14.117188 -24.859375 13.765625 -24.765625 C 13.410156 -24.671875 13.082031 -24.546875 12.78125 -24.390625 C 12.351562 -24.179688 12.003906 -23.914062 11.734375 -23.59375 C 11.472656 -23.269531 11.253906 -22.941406 11.078125 -22.609375 C 10.816406 -22.066406 10.539062 -21.328125 10.25 -20.390625 C 9.96875 -19.460938 9.703125 -18.425781 9.453125 -17.28125 C 9.210938 -16.144531 9.007812 -14.953125 8.84375 -13.703125 C 8.6875 -12.460938 8.609375 -11.257812 8.609375 -10.09375 C 8.609375 -8.457031 8.742188 -7.050781 9.015625 -5.875 C 9.296875 -4.707031 9.679688 -3.742188 10.171875 -2.984375 C 10.660156 -2.222656 11.238281 -1.660156 11.90625 -1.296875 C 12.582031 -0.929688 13.3125 -0.75 14.09375 -0.75 C 14.707031 -0.75 15.226562 -0.835938 15.65625 -1.015625 C 16.082031 -1.191406 16.429688 -1.421875 16.703125 -1.703125 C 16.984375 -1.992188 17.179688 -2.3125 17.296875 -2.65625 C 17.421875 -3 17.484375 -3.335938 17.484375 -3.671875 C 17.484375 -4.085938 17.375 -4.4375 17.15625 -4.71875 C 16.9375 -5 16.6875 -5.269531 16.40625 -5.53125 C 16.132812 -5.789062 15.882812 -6.070312 15.65625 -6.375 C 15.4375 -6.6875 15.328125 -7.085938 15.328125 -7.578125 C 15.328125 -8.179688 15.519531 -8.691406 15.90625 -9.109375 C 16.300781 -9.523438 16.84375 -9.734375 17.53125 -9.734375 C 17.84375 -9.734375 18.140625 -9.675781 18.421875 -9.5625 C 18.703125 -9.457031 18.953125 -9.28125 19.171875 -9.03125 C 19.390625 -8.789062 19.566406 -8.484375 19.703125 -8.109375 C 19.847656 -7.734375 19.921875 -7.285156 19.921875 -6.765625 C 19.921875 -5.867188 19.78125 -4.972656 19.5 -4.078125 C 19.226562 -3.179688 18.789062 -2.375 18.1875 -1.65625 C 17.59375 -0.945312 16.820312 -0.367188 15.875 0.078125 C 14.925781 0.523438 13.773438 0.75 12.421875 0.75 C 10.890625 0.75 9.507812 0.4375 8.28125 -0.1875 C 7.0625 -0.820312 6.082031 -1.6875 5.34375 -2.78125 C 4.6875 -3.789062 4.203125 -4.929688 3.890625 -6.203125 C 3.585938 -7.484375 3.4375 -8.78125 3.4375 -10.09375 C 3.4375 -11.625 3.550781 -13.101562 3.78125 -14.53125 C 4.007812 -15.96875 4.257812 -17.269531 4.53125 -18.4375 C 4.8125 -19.613281 5.066406 -20.625 5.296875 -21.46875 C 5.523438 -22.320312 5.640625 -22.9375 5.640625 -23.3125 C 5.640625 -23.59375 5.5625 -23.757812 5.40625 -23.8125 C 5.257812 -23.875 5.054688 -23.90625 4.796875 -23.90625 C 4.640625 -23.90625 4.425781 -23.898438 4.15625 -23.890625 C 3.894531 -23.878906 3.601562 -23.863281 3.28125 -23.84375 C 2.957031 -23.832031 2.617188 -23.816406 2.265625 -23.796875 C 1.921875 -23.785156 1.585938 -23.78125 1.265625 -23.78125 C 0.691406 -23.78125 0.40625 -23.9375 0.40625 -24.25 C 0.40625 -24.507812 0.613281 -24.710938 1.03125 -24.859375 Z M 1.03125 -24.859375 "/></g></g></g><g fill="#1d3557" fill-opacity="1"><g transform="translate(242.901156, 54.250818)"><g><path d="M 18.796875 -12.15625 C 19.003906 -11.8125 19.195312 -11.335938 19.375 -10.734375 C 19.550781 -10.140625 19.640625 -9.535156 19.640625 -8.921875 C 19.640625 -7.804688 19.457031 -6.804688 19.09375 -5.921875 C 18.726562 -5.046875 18.203125 -4.304688 17.515625 -3.703125 C 16.828125 -3.097656 15.992188 -2.632812 15.015625 -2.3125 C 14.046875 -2 12.957031 -1.84375 11.75 -1.84375 C 10.007812 -1.84375 8.453125 -2.132812 7.078125 -2.71875 C 5.710938 -3.3125 4.5625 -4.132812 3.625 -5.1875 C 2.6875 -6.238281 1.972656 -7.492188 1.484375 -8.953125 C 0.992188 -10.421875 0.75 -12.023438 0.75 -13.765625 C 0.75 -15.347656 0.914062 -16.78125 1.25 -18.0625 C 1.59375 -19.34375 2.054688 -20.488281 2.640625 -21.5 C 3.222656 -22.507812 3.894531 -23.390625 4.65625 -24.140625 C 5.425781 -24.890625 6.238281 -25.507812 7.09375 -26 C 7.945312 -26.488281 8.816406 -26.851562 9.703125 -27.09375 C 10.585938 -27.332031 11.445312 -27.453125 12.28125 -27.453125 C 13.09375 -27.453125 13.929688 -27.34375 14.796875 -27.125 C 15.671875 -26.914062 16.472656 -26.550781 17.203125 -26.03125 C 17.929688 -25.507812 18.523438 -24.820312 18.984375 -23.96875 C 19.453125 -23.125 19.6875 -22.054688 19.6875 -20.765625 C 19.6875 -19.648438 19.519531 -18.671875 19.1875 -17.828125 C 18.863281 -16.984375 18.429688 -16.253906 17.890625 -15.640625 C 17.359375 -15.035156 16.753906 -14.535156 16.078125 -14.140625 C 15.398438 -13.742188 14.703125 -13.425781 13.984375 -13.1875 C 13.273438 -12.945312 12.578125 -12.78125 11.890625 -12.6875 C 11.210938 -12.59375 10.613281 -12.546875 10.09375 -12.546875 C 9.34375 -12.546875 8.613281 -12.597656 7.90625 -12.703125 C 7.195312 -12.816406 6.644531 -12.9375 6.25 -13.0625 C 6.300781 -11.863281 6.484375 -10.707031 6.796875 -9.59375 C 7.117188 -8.488281 7.566406 -7.515625 8.140625 -6.671875 C 8.722656 -5.835938 9.445312 -5.164062 10.3125 -4.65625 C 11.175781 -4.15625 12.191406 -3.90625 13.359375 -3.90625 C 14.171875 -3.90625 14.867188 -4.039062 15.453125 -4.3125 C 16.046875 -4.59375 16.53125 -4.960938 16.90625 -5.421875 C 17.289062 -5.890625 17.570312 -6.429688 17.75 -7.046875 C 17.9375 -7.660156 18.03125 -8.300781 18.03125 -8.96875 C 18.03125 -9.363281 18.003906 -9.773438 17.953125 -10.203125 C 17.898438 -10.640625 17.804688 -11.046875 17.671875 -11.421875 C 17.578125 -11.648438 17.5 -11.863281 17.4375 -12.0625 C 17.375 -12.269531 17.34375 -12.429688 17.34375 -12.546875 C 17.34375 -12.859375 17.484375 -13.015625 17.765625 -13.015625 C 17.898438 -13.015625 18.0625 -12.941406 18.25 -12.796875 C 18.445312 -12.660156 18.628906 -12.445312 18.796875 -12.15625 Z M 6.15625 -14.578125 C 6.550781 -14.453125 7 -14.347656 7.5 -14.265625 C 8.007812 -14.179688 8.644531 -14.140625 9.40625 -14.140625 C 10.289062 -14.140625 11.109375 -14.304688 11.859375 -14.640625 C 12.609375 -14.972656 13.25 -15.441406 13.78125 -16.046875 C 14.320312 -16.648438 14.742188 -17.378906 15.046875 -18.234375 C 15.359375 -19.097656 15.515625 -20.054688 15.515625 -21.109375 C 15.515625 -22.046875 15.410156 -22.832031 15.203125 -23.46875 C 14.992188 -24.101562 14.722656 -24.609375 14.390625 -24.984375 C 14.054688 -25.367188 13.671875 -25.640625 13.234375 -25.796875 C 12.796875 -25.960938 12.347656 -26.046875 11.890625 -26.046875 C 11.304688 -26.046875 10.675781 -25.867188 10 -25.515625 C 9.332031 -25.160156 8.710938 -24.546875 8.140625 -23.671875 C 7.566406 -22.804688 7.09375 -21.632812 6.71875 -20.15625 C 6.34375 -18.6875 6.15625 -16.828125 6.15625 -14.578125 Z M 6.15625 -14.578125 "/></g></g><g transform="translate(263.304451, 54.250818)"><g><path d="M 7.09375 -16.546875 C 6.53125 -16.546875 6 -16.648438 5.5 -16.859375 C 5 -17.078125 4.566406 -17.398438 4.203125 -17.828125 C 3.835938 -18.253906 3.546875 -18.789062 3.328125 -19.4375 C 3.109375 -20.082031 3 -20.835938 3 -21.703125 C 3 -22.660156 3.132812 -23.59375 3.40625 -24.5 C 3.675781 -25.40625 4.09375 -26.210938 4.65625 -26.921875 C 5.226562 -27.640625 5.953125 -28.210938 6.828125 -28.640625 C 7.703125 -29.066406 8.757812 -29.28125 10 -29.28125 C 11.03125 -29.28125 11.9375 -29.144531 12.71875 -28.875 C 13.507812 -28.613281 14.203125 -28.253906 14.796875 -27.796875 C 15.398438 -27.347656 15.910156 -26.828125 16.328125 -26.234375 C 16.742188 -25.640625 17.097656 -25.015625 17.390625 -24.359375 C 17.679688 -23.710938 17.921875 -23.054688 18.109375 -22.390625 C 18.304688 -21.722656 18.472656 -21.09375 18.609375 -20.5 C 18.691406 -20.15625 18.789062 -19.671875 18.90625 -19.046875 C 19.019531 -18.429688 19.144531 -17.71875 19.28125 -16.90625 C 19.414062 -16.101562 19.554688 -15.238281 19.703125 -14.3125 C 19.859375 -13.382812 20.015625 -12.445312 20.171875 -11.5 C 20.328125 -10.550781 20.476562 -9.628906 20.625 -8.734375 C 20.769531 -7.835938 20.898438 -7.015625 21.015625 -6.265625 C 21.140625 -5.523438 21.242188 -4.890625 21.328125 -4.359375 C 21.410156 -3.835938 21.476562 -3.476562 21.53125 -3.28125 C 21.625 -2.8125 21.726562 -2.332031 21.84375 -1.84375 C 21.957031 -1.351562 22.097656 -0.90625 22.265625 -0.5 C 22.441406 -0.09375 22.660156 0.238281 22.921875 0.5 C 23.179688 0.757812 23.507812 0.890625 23.90625 0.890625 C 24.132812 0.890625 24.332031 0.835938 24.5 0.734375 C 24.675781 0.628906 24.8125 0.484375 24.90625 0.296875 C 25.007812 0.109375 25.082031 -0.0976562 25.125 -0.328125 C 25.175781 -0.554688 25.203125 -0.789062 25.203125 -1.03125 C 25.203125 -1.320312 25.191406 -1.613281 25.171875 -1.90625 C 25.160156 -2.207031 25.15625 -2.46875 25.15625 -2.6875 C 25.15625 -2.914062 25.1875 -3.113281 25.25 -3.28125 C 25.3125 -3.445312 25.429688 -3.53125 25.609375 -3.53125 C 25.773438 -3.53125 25.90625 -3.429688 26 -3.234375 C 26.101562 -3.046875 26.179688 -2.828125 26.234375 -2.578125 C 26.296875 -2.328125 26.332031 -2.078125 26.34375 -1.828125 C 26.363281 -1.578125 26.375 -1.390625 26.375 -1.265625 C 26.375 -0.722656 26.328125 -0.117188 26.234375 0.546875 C 26.140625 1.222656 25.945312 1.875 25.65625 2.5 C 25.382812 3.144531 24.925781 3.671875 24.28125 4.078125 C 23.632812 4.492188 22.890625 4.703125 22.046875 4.703125 C 21.316406 4.703125 20.6875 4.59375 20.15625 4.375 C 19.632812 4.164062 19.1875 3.898438 18.8125 3.578125 C 18.4375 3.253906 18.117188 2.910156 17.859375 2.546875 C 17.609375 2.179688 17.410156 1.835938 17.265625 1.515625 C 16.828125 0.691406 16.5 -0.210938 16.28125 -1.203125 C 16.0625 -2.191406 15.882812 -3.140625 15.75 -4.046875 C 15.519531 -3.660156 15.171875 -3.179688 14.703125 -2.609375 C 14.234375 -2.046875 13.65625 -1.503906 12.96875 -0.984375 C 12.28125 -0.460938 11.484375 -0.0195312 10.578125 0.34375 C 9.671875 0.707031 8.671875 0.890625 7.578125 0.890625 C 6.347656 0.890625 5.300781 0.71875 4.4375 0.375 C 3.570312 0.03125 2.863281 -0.429688 2.3125 -1.015625 C 1.757812 -1.609375 1.351562 -2.296875 1.09375 -3.078125 C 0.84375 -3.867188 0.71875 -4.707031 0.71875 -5.59375 C 0.71875 -6.539062 0.890625 -7.5 1.234375 -8.46875 C 1.585938 -9.4375 2.164062 -10.304688 2.96875 -11.078125 C 3.769531 -11.859375 4.816406 -12.492188 6.109375 -12.984375 C 7.410156 -13.472656 8.992188 -13.71875 10.859375 -13.71875 C 11.285156 -13.71875 11.703125 -13.695312 12.109375 -13.65625 C 12.515625 -13.625 12.878906 -13.582031 13.203125 -13.53125 C 13.535156 -13.488281 13.816406 -13.441406 14.046875 -13.390625 C 14.285156 -13.347656 14.460938 -13.320312 14.578125 -13.3125 C 14.484375 -14.625 14.367188 -15.941406 14.234375 -17.265625 C 14.171875 -17.804688 14.101562 -18.382812 14.03125 -19 C 13.96875 -19.613281 13.894531 -20.226562 13.8125 -20.84375 C 13.738281 -21.46875 13.65625 -22.078125 13.5625 -22.671875 C 13.46875 -23.265625 13.367188 -23.820312 13.265625 -24.34375 C 13.015625 -25.519531 12.535156 -26.457031 11.828125 -27.15625 C 11.117188 -27.851562 10.210938 -28.203125 9.109375 -28.203125 C 8.515625 -28.203125 7.988281 -28.09375 7.53125 -27.875 C 7.082031 -27.664062 6.703125 -27.390625 6.390625 -27.046875 C 6.078125 -26.710938 5.84375 -26.335938 5.6875 -25.921875 C 5.539062 -25.503906 5.46875 -25.085938 5.46875 -24.671875 C 5.46875 -24.222656 5.570312 -23.847656 5.78125 -23.546875 C 6 -23.253906 6.265625 -22.992188 6.578125 -22.765625 C 6.890625 -22.535156 7.226562 -22.316406 7.59375 -22.109375 C 7.957031 -21.898438 8.296875 -21.660156 8.609375 -21.390625 C 8.929688 -21.128906 9.195312 -20.8125 9.40625 -20.4375 C 9.625 -20.0625 9.734375 -19.59375 9.734375 -19.03125 C 9.734375 -18.28125 9.472656 -17.675781 8.953125 -17.21875 C 8.441406 -16.769531 7.820312 -16.546875 7.09375 -16.546875 Z M 14.75 -11.890625 C 14.644531 -11.929688 14.457031 -11.984375 14.1875 -12.046875 C 13.925781 -12.117188 13.609375 -12.191406 13.234375 -12.265625 C 12.867188 -12.335938 12.472656 -12.394531 12.046875 -12.4375 C 11.628906 -12.476562 11.21875 -12.5 10.8125 -12.5 C 10 -12.5 9.242188 -12.382812 8.546875 -12.15625 C 7.847656 -11.925781 7.242188 -11.585938 6.734375 -11.140625 C 6.234375 -10.691406 5.835938 -10.125 5.546875 -9.4375 C 5.265625 -8.757812 5.125 -7.976562 5.125 -7.09375 C 5.125 -6.28125 5.253906 -5.609375 5.515625 -5.078125 C 5.785156 -4.554688 6.128906 -4.140625 6.546875 -3.828125 C 6.972656 -3.523438 7.441406 -3.3125 7.953125 -3.1875 C 8.460938 -3.0625 8.960938 -3 9.453125 -3 C 10.234375 -3 10.972656 -3.117188 11.671875 -3.359375 C 12.378906 -3.609375 13 -3.894531 13.53125 -4.21875 C 14.070312 -4.539062 14.507812 -4.851562 14.84375 -5.15625 C 15.1875 -5.46875 15.394531 -5.675781 15.46875 -5.78125 C 15.363281 -6.8125 15.265625 -7.742188 15.171875 -8.578125 C 15.117188 -8.953125 15.070312 -9.3125 15.03125 -9.65625 C 15 -10.007812 14.960938 -10.335938 14.921875 -10.640625 C 14.890625 -10.953125 14.859375 -11.210938 14.828125 -11.421875 C 14.796875 -11.640625 14.769531 -11.796875 14.75 -11.890625 Z M 14.75 -11.890625 "/></g></g></g></g></g></svg>