<svg xmlns="http://www.w3.org/2000/svg" xmlns:xlink="http://www.w3.org/1999/xlink" width="500" zoomAndPan="magnify" viewBox="0 0 375 374.999991" height="500" preserveAspectRatio="xMidYMid meet" version="1.0"><defs><clipPath id="f4f1113328"><path d="M 0 0 L 62.863281 0 L 62.863281 375 L 0 375 Z M 0 0 " clip-rule="nonzero"/></clipPath><clipPath id="12aaff6c78"><path d="M 62.863281 6.34375 L 62.863281 372.40625 C 62.863281 375.910156 62.191406 378.75 61.355469 378.75 L 1.507812 378.75 C 0.675781 378.75 0 375.910156 0 372.40625 L 0 6.34375 C 0 2.839844 0.675781 0 1.507812 0 L 61.355469 0 C 62.191406 0 62.863281 2.839844 62.863281 6.34375 Z M 62.863281 6.34375 " clip-rule="nonzero"/></clipPath><clipPath id="a0e96ba660"><path d="M 0 0 L 62.863281 0 L 62.863281 375 L 0 375 Z M 0 0 " clip-rule="nonzero"/></clipPath><clipPath id="32986d22d8"><path d="M 62.863281 6.34375 L 62.863281 372.40625 C 62.863281 375.910156 62.191406 378.75 61.355469 378.75 L 1.507812 378.75 C 0.675781 378.75 0 375.910156 0 372.40625 L 0 6.34375 C 0 2.839844 0.675781 0 1.507812 0 L 61.355469 0 C 62.191406 0 62.863281 2.839844 62.863281 6.34375 Z M 62.863281 6.34375 " clip-rule="nonzero"/></clipPath><clipPath id="27e841cd1e"><rect x="0" width="63" y="0" height="375"/></clipPath><clipPath id="cef6499e5c"><path d="M 49.332031 0 L 118.402344 0 L 118.402344 375 L 49.332031 375 Z M 49.332031 0 " clip-rule="nonzero"/></clipPath><clipPath id="5696deb82c"><path d="M 118.402344 6.34375 L 118.402344 372.40625 C 118.402344 375.910156 117.664062 378.75 116.746094 378.75 L 50.988281 378.75 C 50.074219 378.75 49.332031 375.910156 49.332031 372.40625 L 49.332031 6.34375 C 49.332031 2.839844 50.074219 0 50.988281 0 L 116.746094 0 C 117.664062 0 118.402344 2.839844 118.402344 6.34375 Z M 118.402344 6.34375 " clip-rule="nonzero"/></clipPath><clipPath id="91659b9508"><path d="M 0.332031 0 L 69.402344 0 L 69.402344 375 L 0.332031 375 Z M 0.332031 0 " clip-rule="nonzero"/></clipPath><clipPath id="dc8a69e002"><path d="M 69.402344 6.34375 L 69.402344 372.40625 C 69.402344 375.910156 68.664062 378.75 67.746094 378.75 L 1.988281 378.75 C 1.074219 378.75 0.332031 375.910156 0.332031 372.40625 L 0.332031 6.34375 C 0.332031 2.839844 1.074219 0 1.988281 0 L 67.746094 0 C 68.664062 0 69.402344 2.839844 69.402344 6.34375 Z M 69.402344 6.34375 " clip-rule="nonzero"/></clipPath><clipPath id="1c8019b782"><rect x="0" width="70" y="0" height="375"/></clipPath><clipPath id="a9ab365168"><path d="M 109.195312 0 L 178.265625 0 L 178.265625 375 L 109.195312 375 Z M 109.195312 0 " clip-rule="nonzero"/></clipPath><clipPath id="606a173a8a"><path d="M 178.265625 6.34375 L 178.265625 372.40625 C 178.265625 375.910156 177.523438 378.75 176.609375 378.75 L 110.851562 378.75 C 109.933594 378.75 109.195312 375.910156 109.195312 372.40625 L 109.195312 6.34375 C 109.195312 2.839844 109.933594 0 110.851562 0 L 176.609375 0 C 177.523438 0 178.265625 2.839844 178.265625 6.34375 Z M 178.265625 6.34375 " clip-rule="nonzero"/></clipPath><clipPath id="82b6a5ba5f"><path d="M 0.195312 0 L 69.265625 0 L 69.265625 375 L 0.195312 375 Z M 0.195312 0 " clip-rule="nonzero"/></clipPath><clipPath id="ed515c6ae0"><path d="M 69.265625 6.34375 L 69.265625 372.40625 C 69.265625 375.910156 68.523438 378.75 67.609375 378.75 L 1.851562 378.75 C 0.933594 378.75 0.195312 375.910156 0.195312 372.40625 L 0.195312 6.34375 C 0.195312 2.839844 0.933594 0 1.851562 0 L 67.609375 0 C 68.523438 0 69.265625 2.839844 69.265625 6.34375 Z M 69.265625 6.34375 " clip-rule="nonzero"/></clipPath><clipPath id="4e44db1216"><rect x="0" width="70" y="0" height="375"/></clipPath><clipPath id="ba6ff7819d"><path d="M 158.882812 0 L 227.953125 0 L 227.953125 375 L 158.882812 375 Z M 158.882812 0 " clip-rule="nonzero"/></clipPath><clipPath id="d2b39c3a8e"><path d="M 227.953125 6.34375 L 227.953125 372.40625 C 227.953125 375.910156 227.210938 378.75 226.296875 378.75 L 160.539062 378.75 C 159.621094 378.75 158.882812 375.910156 158.882812 372.40625 L 158.882812 6.34375 C 158.882812 2.839844 159.621094 0 160.539062 0 L 226.296875 0 C 227.210938 0 227.953125 2.839844 227.953125 6.34375 Z M 227.953125 6.34375 " clip-rule="nonzero"/></clipPath><clipPath id="5875ae4f6d"><path d="M 0.882812 0 L 69.953125 0 L 69.953125 375 L 0.882812 375 Z M 0.882812 0 " clip-rule="nonzero"/></clipPath><clipPath id="a2d19700c9"><path d="M 69.953125 6.34375 L 69.953125 372.40625 C 69.953125 375.910156 69.210938 378.75 68.296875 378.75 L 2.539062 378.75 C 1.621094 378.75 0.882812 375.910156 0.882812 372.40625 L 0.882812 6.34375 C 0.882812 2.839844 1.621094 0 2.539062 0 L 68.296875 0 C 69.210938 0 69.953125 2.839844 69.953125 6.34375 Z M 69.953125 6.34375 " clip-rule="nonzero"/></clipPath><clipPath id="2232058f14"><rect x="0" width="70" y="0" height="375"/></clipPath><clipPath id="cf6a43949b"><path d="M 215.535156 0 L 284.605469 0 L 284.605469 375 L 215.535156 375 Z M 215.535156 0 " clip-rule="nonzero"/></clipPath><clipPath id="ae766a3c37"><path d="M 284.605469 6.34375 L 284.605469 372.40625 C 284.605469 375.910156 283.863281 378.75 282.949219 378.75 L 217.191406 378.75 C 216.277344 378.75 215.535156 375.910156 215.535156 372.40625 L 215.535156 6.34375 C 215.535156 2.839844 216.277344 0 217.191406 0 L 282.949219 0 C 283.863281 0 284.605469 2.839844 284.605469 6.34375 Z M 284.605469 6.34375 " clip-rule="nonzero"/></clipPath><clipPath id="5f21735847"><path d="M 0.535156 0 L 69.605469 0 L 69.605469 375 L 0.535156 375 Z M 0.535156 0 " clip-rule="nonzero"/></clipPath><clipPath id="8413ab8270"><path d="M 69.605469 6.34375 L 69.605469 372.40625 C 69.605469 375.910156 68.863281 378.75 67.949219 378.75 L 2.191406 378.75 C 1.277344 378.75 0.535156 375.910156 0.535156 372.40625 L 0.535156 6.34375 C 0.535156 2.839844 1.277344 0 2.191406 0 L 67.949219 0 C 68.863281 0 69.605469 2.839844 69.605469 6.34375 Z M 69.605469 6.34375 " clip-rule="nonzero"/></clipPath><clipPath id="6b39edbe35"><rect x="0" width="70" y="0" height="375"/></clipPath><clipPath id="a77e6b8b10"><path d="M 268.429688 0 L 337.5 0 L 337.5 375 L 268.429688 375 Z M 268.429688 0 " clip-rule="nonzero"/></clipPath><clipPath id="c576fb544c"><path d="M 337.5 6.34375 L 337.5 372.40625 C 337.5 375.910156 336.757812 378.75 335.84375 378.75 L 270.085938 378.75 C 269.171875 378.75 268.429688 375.910156 268.429688 372.40625 L 268.429688 6.34375 C 268.429688 2.839844 269.171875 0 270.085938 0 L 335.84375 0 C 336.757812 0 337.5 2.839844 337.5 6.34375 Z M 337.5 6.34375 " clip-rule="nonzero"/></clipPath><clipPath id="d9cb97295d"><path d="M 0.429688 0 L 69.5 0 L 69.5 375 L 0.429688 375 Z M 0.429688 0 " clip-rule="nonzero"/></clipPath><clipPath id="4b7a026761"><path d="M 69.5 6.34375 L 69.5 372.40625 C 69.5 375.910156 68.757812 378.75 67.84375 378.75 L 2.085938 378.75 C 1.171875 378.75 0.429688 375.910156 0.429688 372.40625 L 0.429688 6.34375 C 0.429688 2.839844 1.171875 0 2.085938 0 L 67.84375 0 C 68.757812 0 69.5 2.839844 69.5 6.34375 Z M 69.5 6.34375 " clip-rule="nonzero"/></clipPath><clipPath id="acf696080b"><rect x="0" width="70" y="0" height="375"/></clipPath><clipPath id="de9158d94c"><path d="M 321.875 0 L 375 0 L 375 375 L 321.875 375 Z M 321.875 0 " clip-rule="nonzero"/></clipPath><clipPath id="293761765e"><path d="M 390.949219 6.34375 L 390.949219 372.40625 C 390.949219 375.910156 390.207031 378.75 389.289062 378.75 L 323.53125 378.75 C 322.617188 378.75 321.875 375.910156 321.875 372.40625 L 321.875 6.34375 C 321.875 2.839844 322.617188 0 323.53125 0 L 389.289062 0 C 390.207031 0 390.949219 2.839844 390.949219 6.34375 Z M 390.949219 6.34375 " clip-rule="nonzero"/></clipPath><clipPath id="271113d277"><path d="M 0.875 0 L 54 0 L 54 375 L 0.875 375 Z M 0.875 0 " clip-rule="nonzero"/></clipPath><clipPath id="656963e5c5"><path d="M 69.949219 6.34375 L 69.949219 372.40625 C 69.949219 375.910156 69.207031 378.75 68.289062 378.75 L 2.53125 378.75 C 1.617188 378.75 0.875 375.910156 0.875 372.40625 L 0.875 6.34375 C 0.875 2.839844 1.617188 0 2.53125 0 L 68.289062 0 C 69.207031 0 69.949219 2.839844 69.949219 6.34375 Z M 69.949219 6.34375 " clip-rule="nonzero"/></clipPath><clipPath id="bac0e45bee"><rect x="0" width="54" y="0" height="375"/></clipPath></defs><rect x="-37.5" width="450" fill="#ffffff" y="-37.499999" height="449.999989" fill-opacity="1"/><rect x="-37.5" width="450" fill="#ffffff" y="-37.499999" height="449.999989" fill-opacity="1"/><g clip-path="url(#f4f1113328)"><g clip-path="url(#12aaff6c78)"><g transform="matrix(1, 0, 0, 1, 0, 0)"><g clip-path="url(#27e841cd1e)"><g clip-path="url(#a0e96ba660)"><g clip-path="url(#32986d22d8)"><path fill="#1d3557" d="M 0 0 L 62.863281 0 L 62.863281 378.789062 L 0 378.789062 Z M 0 0 " fill-opacity="1" fill-rule="nonzero"/></g></g></g></g></g></g><g clip-path="url(#cef6499e5c)"><g clip-path="url(#5696deb82c)"><g transform="matrix(1, 0, 0, 1, 49, 0)"><g clip-path="url(#1c8019b782)"><g clip-path="url(#91659b9508)"><g clip-path="url(#dc8a69e002)"><path fill="#4a6fa5" d="M 0.332031 0 L 69.402344 0 L 69.402344 378.769531 L 0.332031 378.769531 Z M 0.332031 0 " fill-opacity="1" fill-rule="nonzero"/></g></g></g></g></g></g><g clip-path="url(#a9ab365168)"><g clip-path="url(#606a173a8a)"><g transform="matrix(1, 0, 0, 1, 109, 0)"><g clip-path="url(#4e44db1216)"><g clip-path="url(#82b6a5ba5f)"><g clip-path="url(#ed515c6ae0)"><path fill="#457b9d" d="M 0.195312 0 L 69.265625 0 L 69.265625 378.769531 L 0.195312 378.769531 Z M 0.195312 0 " fill-opacity="1" fill-rule="nonzero"/></g></g></g></g></g></g><g clip-path="url(#ba6ff7819d)"><g clip-path="url(#d2b39c3a8e)"><g transform="matrix(1, 0, 0, 1, 158, 0)"><g clip-path="url(#2232058f14)"><g clip-path="url(#5875ae4f6d)"><g clip-path="url(#a2d19700c9)"><path fill="#a8dadc" d="M 0.882812 0 L 69.953125 0 L 69.953125 378.769531 L 0.882812 378.769531 Z M 0.882812 0 " fill-opacity="1" fill-rule="nonzero"/></g></g></g></g></g></g><g clip-path="url(#cf6a43949b)"><g clip-path="url(#ae766a3c37)"><g transform="matrix(1, 0, 0, 1, 215, 0)"><g clip-path="url(#6b39edbe35)"><g clip-path="url(#5f21735847)"><g clip-path="url(#8413ab8270)"><path fill="#f1faee" d="M 0.535156 0 L 69.605469 0 L 69.605469 378.769531 L 0.535156 378.769531 Z M 0.535156 0 " fill-opacity="1" fill-rule="nonzero"/></g></g></g></g></g></g><g clip-path="url(#a77e6b8b10)"><g clip-path="url(#c576fb544c)"><g transform="matrix(1, 0, 0, 1, 268, 0)"><g clip-path="url(#acf696080b)"><g clip-path="url(#d9cb97295d)"><g clip-path="url(#4b7a026761)"><path fill="#e9c46a" d="M 0.429688 0 L 69.5 0 L 69.5 378.769531 L 0.429688 378.769531 Z M 0.429688 0 " fill-opacity="1" fill-rule="nonzero"/></g></g></g></g></g></g><g clip-path="url(#de9158d94c)"><g clip-path="url(#293761765e)"><g transform="matrix(1, 0, 0, 1, 321, 0)"><g clip-path="url(#bac0e45bee)"><g clip-path="url(#271113d277)"><g clip-path="url(#656963e5c5)"><path fill="#f0ead2" d="M 0.875 0 L 69.949219 0 L 69.949219 378.769531 L 0.875 378.769531 Z M 0.875 0 " fill-opacity="1" fill-rule="nonzero"/></g></g></g></g></g></g></svg>