<svg xmlns="http://www.w3.org/2000/svg" xmlns:xlink="http://www.w3.org/1999/xlink" width="500" zoomAndPan="magnify" viewBox="0 0 375 374.999991" height="500" preserveAspectRatio="xMidYMid meet" version="1.0"><defs><g/><clipPath id="c7bbd4fbdf"><path d="M 0 0 L 62.863281 0 L 62.863281 375 L 0 375 Z M 0 0 " clip-rule="nonzero"/></clipPath><clipPath id="20bc089949"><path d="M 62.863281 6.34375 L 62.863281 372.40625 C 62.863281 375.910156 62.191406 378.75 61.355469 378.75 L 1.507812 378.75 C 0.675781 378.75 0 375.910156 0 372.40625 L 0 6.34375 C 0 2.839844 0.675781 0 1.507812 0 L 61.355469 0 C 62.191406 0 62.863281 2.839844 62.863281 6.34375 Z M 62.863281 6.34375 " clip-rule="nonzero"/></clipPath><clipPath id="e9f50641a0"><path d="M 0 0 L 62.863281 0 L 62.863281 375 L 0 375 Z M 0 0 " clip-rule="nonzero"/></clipPath><clipPath id="c01d212bff"><path d="M 62.863281 6.34375 L 62.863281 372.40625 C 62.863281 375.910156 62.191406 378.75 61.355469 378.75 L 1.507812 378.75 C 0.675781 378.75 0 375.910156 0 372.40625 L 0 6.34375 C 0 2.839844 0.675781 0 1.507812 0 L 61.355469 0 C 62.191406 0 62.863281 2.839844 62.863281 6.34375 Z M 62.863281 6.34375 " clip-rule="nonzero"/></clipPath><clipPath id="cf4f8a049b"><rect x="0" width="63" y="0" height="375"/></clipPath><clipPath id="8cb7b6d7d8"><path d="M 49.332031 0 L 118.402344 0 L 118.402344 375 L 49.332031 375 Z M 49.332031 0 " clip-rule="nonzero"/></clipPath><clipPath id="8f5f5a303f"><path d="M 118.402344 6.34375 L 118.402344 372.40625 C 118.402344 375.910156 117.664062 378.75 116.746094 378.75 L 50.988281 378.75 C 50.074219 378.75 49.332031 375.910156 49.332031 372.40625 L 49.332031 6.34375 C 49.332031 2.839844 50.074219 0 50.988281 0 L 116.746094 0 C 117.664062 0 118.402344 2.839844 118.402344 6.34375 Z M 118.402344 6.34375 " clip-rule="nonzero"/></clipPath><clipPath id="5ecc78e417"><path d="M 0.332031 0 L 69.402344 0 L 69.402344 375 L 0.332031 375 Z M 0.332031 0 " clip-rule="nonzero"/></clipPath><clipPath id="c18b7b388c"><path d="M 69.402344 6.34375 L 69.402344 372.40625 C 69.402344 375.910156 68.664062 378.75 67.746094 378.75 L 1.988281 378.75 C 1.074219 378.75 0.332031 375.910156 0.332031 372.40625 L 0.332031 6.34375 C 0.332031 2.839844 1.074219 0 1.988281 0 L 67.746094 0 C 68.664062 0 69.402344 2.839844 69.402344 6.34375 Z M 69.402344 6.34375 " clip-rule="nonzero"/></clipPath><clipPath id="8c8ebca242"><rect x="0" width="70" y="0" height="375"/></clipPath><clipPath id="6c83702f75"><path d="M 109.195312 0 L 178.265625 0 L 178.265625 375 L 109.195312 375 Z M 109.195312 0 " clip-rule="nonzero"/></clipPath><clipPath id="3c1eb5b65a"><path d="M 178.265625 6.34375 L 178.265625 372.40625 C 178.265625 375.910156 177.523438 378.75 176.609375 378.75 L 110.851562 378.75 C 109.933594 378.75 109.195312 375.910156 109.195312 372.40625 L 109.195312 6.34375 C 109.195312 2.839844 109.933594 0 110.851562 0 L 176.609375 0 C 177.523438 0 178.265625 2.839844 178.265625 6.34375 Z M 178.265625 6.34375 " clip-rule="nonzero"/></clipPath><clipPath id="7548d4ec4e"><path d="M 0.195312 0 L 69.265625 0 L 69.265625 375 L 0.195312 375 Z M 0.195312 0 " clip-rule="nonzero"/></clipPath><clipPath id="89aab9090a"><path d="M 69.265625 6.34375 L 69.265625 372.40625 C 69.265625 375.910156 68.523438 378.75 67.609375 378.75 L 1.851562 378.75 C 0.933594 378.75 0.195312 375.910156 0.195312 372.40625 L 0.195312 6.34375 C 0.195312 2.839844 0.933594 0 1.851562 0 L 67.609375 0 C 68.523438 0 69.265625 2.839844 69.265625 6.34375 Z M 69.265625 6.34375 " clip-rule="nonzero"/></clipPath><clipPath id="3daeb2e7aa"><rect x="0" width="70" y="0" height="375"/></clipPath><clipPath id="d0056e84fb"><path d="M 158.882812 0 L 227.953125 0 L 227.953125 375 L 158.882812 375 Z M 158.882812 0 " clip-rule="nonzero"/></clipPath><clipPath id="2b942dc8cf"><path d="M 227.953125 6.34375 L 227.953125 372.40625 C 227.953125 375.910156 227.210938 378.75 226.296875 378.75 L 160.539062 378.75 C 159.621094 378.75 158.882812 375.910156 158.882812 372.40625 L 158.882812 6.34375 C 158.882812 2.839844 159.621094 0 160.539062 0 L 226.296875 0 C 227.210938 0 227.953125 2.839844 227.953125 6.34375 Z M 227.953125 6.34375 " clip-rule="nonzero"/></clipPath><clipPath id="8aaf3f4019"><path d="M 0.882812 0 L 69.953125 0 L 69.953125 375 L 0.882812 375 Z M 0.882812 0 " clip-rule="nonzero"/></clipPath><clipPath id="25ab24301c"><path d="M 69.953125 6.34375 L 69.953125 372.40625 C 69.953125 375.910156 69.210938 378.75 68.296875 378.75 L 2.539062 378.75 C 1.621094 378.75 0.882812 375.910156 0.882812 372.40625 L 0.882812 6.34375 C 0.882812 2.839844 1.621094 0 2.539062 0 L 68.296875 0 C 69.210938 0 69.953125 2.839844 69.953125 6.34375 Z M 69.953125 6.34375 " clip-rule="nonzero"/></clipPath><clipPath id="0c6ac01e05"><rect x="0" width="70" y="0" height="375"/></clipPath><clipPath id="0cbfcd6d48"><path d="M 215.535156 0 L 284.605469 0 L 284.605469 375 L 215.535156 375 Z M 215.535156 0 " clip-rule="nonzero"/></clipPath><clipPath id="ba500072da"><path d="M 284.605469 6.34375 L 284.605469 372.40625 C 284.605469 375.910156 283.863281 378.75 282.949219 378.75 L 217.191406 378.75 C 216.277344 378.75 215.535156 375.910156 215.535156 372.40625 L 215.535156 6.34375 C 215.535156 2.839844 216.277344 0 217.191406 0 L 282.949219 0 C 283.863281 0 284.605469 2.839844 284.605469 6.34375 Z M 284.605469 6.34375 " clip-rule="nonzero"/></clipPath><clipPath id="14b7b9e720"><path d="M 0.535156 0 L 69.605469 0 L 69.605469 375 L 0.535156 375 Z M 0.535156 0 " clip-rule="nonzero"/></clipPath><clipPath id="b9ff46cc7b"><path d="M 69.605469 6.34375 L 69.605469 372.40625 C 69.605469 375.910156 68.863281 378.75 67.949219 378.75 L 2.191406 378.75 C 1.277344 378.75 0.535156 375.910156 0.535156 372.40625 L 0.535156 6.34375 C 0.535156 2.839844 1.277344 0 2.191406 0 L 67.949219 0 C 68.863281 0 69.605469 2.839844 69.605469 6.34375 Z M 69.605469 6.34375 " clip-rule="nonzero"/></clipPath><clipPath id="7bdabeedb5"><rect x="0" width="70" y="0" height="375"/></clipPath><clipPath id="a53abe7651"><path d="M 268.429688 0 L 337.5 0 L 337.5 375 L 268.429688 375 Z M 268.429688 0 " clip-rule="nonzero"/></clipPath><clipPath id="4733747e96"><path d="M 337.5 6.34375 L 337.5 372.40625 C 337.5 375.910156 336.757812 378.75 335.84375 378.75 L 270.085938 378.75 C 269.171875 378.75 268.429688 375.910156 268.429688 372.40625 L 268.429688 6.34375 C 268.429688 2.839844 269.171875 0 270.085938 0 L 335.84375 0 C 336.757812 0 337.5 2.839844 337.5 6.34375 Z M 337.5 6.34375 " clip-rule="nonzero"/></clipPath><clipPath id="f46db7a90c"><path d="M 0.429688 0 L 69.5 0 L 69.5 375 L 0.429688 375 Z M 0.429688 0 " clip-rule="nonzero"/></clipPath><clipPath id="b77ac58d27"><path d="M 69.5 6.34375 L 69.5 372.40625 C 69.5 375.910156 68.757812 378.75 67.84375 378.75 L 2.085938 378.75 C 1.171875 378.75 0.429688 375.910156 0.429688 372.40625 L 0.429688 6.34375 C 0.429688 2.839844 1.171875 0 2.085938 0 L 67.84375 0 C 68.757812 0 69.5 2.839844 69.5 6.34375 Z M 69.5 6.34375 " clip-rule="nonzero"/></clipPath><clipPath id="7b815bca7f"><rect x="0" width="70" y="0" height="375"/></clipPath><clipPath id="4be75931a1"><path d="M 321.875 0 L 375 0 L 375 375 L 321.875 375 Z M 321.875 0 " clip-rule="nonzero"/></clipPath><clipPath id="8b6bef7042"><path d="M 390.949219 6.34375 L 390.949219 372.40625 C 390.949219 375.910156 390.207031 378.75 389.289062 378.75 L 323.53125 378.75 C 322.617188 378.75 321.875 375.910156 321.875 372.40625 L 321.875 6.34375 C 321.875 2.839844 322.617188 0 323.53125 0 L 389.289062 0 C 390.207031 0 390.949219 2.839844 390.949219 6.34375 Z M 390.949219 6.34375 " clip-rule="nonzero"/></clipPath><clipPath id="5e60e4daa2"><path d="M 0.875 0 L 54 0 L 54 375 L 0.875 375 Z M 0.875 0 " clip-rule="nonzero"/></clipPath><clipPath id="451219d770"><path d="M 69.949219 6.34375 L 69.949219 372.40625 C 69.949219 375.910156 69.207031 378.75 68.289062 378.75 L 2.53125 378.75 C 1.617188 378.75 0.875 375.910156 0.875 372.40625 L 0.875 6.34375 C 0.875 2.839844 1.617188 0 2.53125 0 L 68.289062 0 C 69.207031 0 69.949219 2.839844 69.949219 6.34375 Z M 69.949219 6.34375 " clip-rule="nonzero"/></clipPath><clipPath id="5ec1e8bd3a"><rect x="0" width="54" y="0" height="375"/></clipPath></defs><rect x="-37.5" width="450" fill="#ffffff" y="-37.499999" height="449.999989" fill-opacity="1"/><rect x="-37.5" width="450" fill="#ffffff" y="-37.499999" height="449.999989" fill-opacity="1"/><g clip-path="url(#c7bbd4fbdf)"><g clip-path="url(#20bc089949)"><g transform="matrix(1, 0, 0, 1, 0, 0)"><g clip-path="url(#cf4f8a049b)"><g clip-path="url(#e9f50641a0)"><g clip-path="url(#c01d212bff)"><path fill="#1d3557" d="M 0 0 L 62.863281 0 L 62.863281 378.789062 L 0 378.789062 Z M 0 0 " fill-opacity="1" fill-rule="nonzero"/></g></g></g></g></g></g><g clip-path="url(#8cb7b6d7d8)"><g clip-path="url(#8f5f5a303f)"><g transform="matrix(1, 0, 0, 1, 49, 0)"><g clip-path="url(#8c8ebca242)"><g clip-path="url(#5ecc78e417)"><g clip-path="url(#c18b7b388c)"><path fill="#4a6fa5" d="M 0.332031 0 L 69.402344 0 L 69.402344 378.769531 L 0.332031 378.769531 Z M 0.332031 0 " fill-opacity="1" fill-rule="nonzero"/></g></g></g></g></g></g><g clip-path="url(#6c83702f75)"><g clip-path="url(#3c1eb5b65a)"><g transform="matrix(1, 0, 0, 1, 109, 0)"><g clip-path="url(#3daeb2e7aa)"><g clip-path="url(#7548d4ec4e)"><g clip-path="url(#89aab9090a)"><path fill="#457b9d" d="M 0.195312 0 L 69.265625 0 L 69.265625 378.769531 L 0.195312 378.769531 Z M 0.195312 0 " fill-opacity="1" fill-rule="nonzero"/></g></g></g></g></g></g><g clip-path="url(#d0056e84fb)"><g clip-path="url(#2b942dc8cf)"><g transform="matrix(1, 0, 0, 1, 158, 0)"><g clip-path="url(#0c6ac01e05)"><g clip-path="url(#8aaf3f4019)"><g clip-path="url(#25ab24301c)"><path fill="#a8dadc" d="M 0.882812 0 L 69.953125 0 L 69.953125 378.769531 L 0.882812 378.769531 Z M 0.882812 0 " fill-opacity="1" fill-rule="nonzero"/></g></g></g></g></g></g><g clip-path="url(#0cbfcd6d48)"><g clip-path="url(#ba500072da)"><g transform="matrix(1, 0, 0, 1, 215, 0)"><g clip-path="url(#7bdabeedb5)"><g clip-path="url(#14b7b9e720)"><g clip-path="url(#b9ff46cc7b)"><path fill="#f1faee" d="M 0.535156 0 L 69.605469 0 L 69.605469 378.769531 L 0.535156 378.769531 Z M 0.535156 0 " fill-opacity="1" fill-rule="nonzero"/></g></g></g></g></g></g><g clip-path="url(#a53abe7651)"><g clip-path="url(#4733747e96)"><g transform="matrix(1, 0, 0, 1, 268, 0)"><g clip-path="url(#7b815bca7f)"><g clip-path="url(#f46db7a90c)"><g clip-path="url(#b77ac58d27)"><path fill="#e9c46a" d="M 0.429688 0 L 69.5 0 L 69.5 378.769531 L 0.429688 378.769531 Z M 0.429688 0 " fill-opacity="1" fill-rule="nonzero"/></g></g></g></g></g></g><g clip-path="url(#4be75931a1)"><g clip-path="url(#8b6bef7042)"><g transform="matrix(1, 0, 0, 1, 321, 0)"><g clip-path="url(#5ec1e8bd3a)"><g clip-path="url(#5e60e4daa2)"><g clip-path="url(#451219d770)"><path fill="#f0ead2" d="M 0.875 0 L 69.949219 0 L 69.949219 378.769531 L 0.875 378.769531 Z M 0.875 0 " fill-opacity="1" fill-rule="nonzero"/></g></g></g></g></g></g><g fill="#000000" fill-opacity="1"><g transform="translate(361.499981, 158.816385)"><g><path d="M 0 -6.90625 L -16.171875 -0.71875 L -16.171875 -3.5625 L -6.640625 -7.015625 C -5.691406 -7.367188 -4.742188 -7.671875 -3.796875 -7.921875 C -2.859375 -8.179688 -1.945312 -8.445312 -1.0625 -8.71875 L -1.0625 -7.84375 C -1.945312 -8.113281 -2.859375 -8.378906 -3.796875 -8.640625 C -4.742188 -8.898438 -5.691406 -9.195312 -6.640625 -9.53125 L -16.171875 -12.984375 L -16.171875 -15.8125 L 0 -9.625 Z M 0 -6.90625 "/></g></g></g><g fill="#000000" fill-opacity="1"><g transform="translate(361.499981, 142.498026)"><g><path d="M 0.359375 -6.828125 C 0.359375 -5.796875 0.164062 -4.859375 -0.21875 -4.015625 C -0.601562 -3.179688 -1.164062 -2.519531 -1.90625 -2.03125 C -2.644531 -1.539062 -3.546875 -1.296875 -4.609375 -1.296875 C -5.535156 -1.296875 -6.285156 -1.476562 -6.859375 -1.84375 C -7.441406 -2.207031 -7.898438 -2.691406 -8.234375 -3.296875 C -8.578125 -3.910156 -8.832031 -4.585938 -9 -5.328125 C -9.164062 -6.078125 -9.296875 -6.835938 -9.390625 -7.609375 C -9.515625 -8.585938 -9.609375 -9.378906 -9.671875 -9.984375 C -9.742188 -10.585938 -9.859375 -11.03125 -10.015625 -11.3125 C -10.179688 -11.601562 -10.46875 -11.75 -10.875 -11.75 L -10.96875 -11.75 C -11.625 -11.75 -12.1875 -11.617188 -12.65625 -11.359375 C -13.125 -11.097656 -13.484375 -10.710938 -13.734375 -10.203125 C -13.984375 -9.703125 -14.109375 -9.078125 -14.109375 -8.328125 C -14.109375 -7.546875 -13.988281 -6.878906 -13.75 -6.328125 C -13.507812 -5.785156 -13.203125 -5.335938 -12.828125 -4.984375 C -12.453125 -4.640625 -12.050781 -4.398438 -11.625 -4.265625 L -12.296875 -1.734375 C -13.273438 -2.066406 -14.066406 -2.566406 -14.671875 -3.234375 C -15.273438 -3.910156 -15.710938 -4.6875 -15.984375 -5.5625 C -16.265625 -6.4375 -16.40625 -7.335938 -16.40625 -8.265625 C -16.40625 -8.890625 -16.320312 -9.550781 -16.15625 -10.25 C -16 -10.957031 -15.71875 -11.617188 -15.3125 -12.234375 C -14.914062 -12.859375 -14.347656 -13.363281 -13.609375 -13.75 C -12.878906 -14.144531 -11.929688 -14.34375 -10.765625 -14.34375 L 0 -14.34375 L 0 -11.78125 L -2.234375 -11.78125 L -2.234375 -11.625 C -1.847656 -11.445312 -1.453125 -11.15625 -1.046875 -10.75 C -0.648438 -10.351562 -0.316406 -9.832031 -0.046875 -9.1875 C 0.222656 -8.539062 0.359375 -7.753906 0.359375 -6.828125 Z M -1.96875 -7.25 C -1.96875 -8.238281 -2.15625 -9.0625 -2.53125 -9.71875 C -2.90625 -10.382812 -3.394531 -10.890625 -4 -11.234375 C -4.601562 -11.578125 -5.238281 -11.75 -5.90625 -11.75 L -8.09375 -11.75 C -7.976562 -11.644531 -7.867188 -11.421875 -7.765625 -11.078125 C -7.671875 -10.742188 -7.582031 -10.351562 -7.5 -9.90625 C -7.425781 -9.46875 -7.363281 -9.03125 -7.3125 -8.59375 C -7.257812 -8.15625 -7.210938 -7.785156 -7.171875 -7.484375 C -7.097656 -6.859375 -6.960938 -6.269531 -6.765625 -5.71875 C -6.578125 -5.175781 -6.300781 -4.738281 -5.9375 -4.40625 C -5.582031 -4.070312 -5.097656 -3.90625 -4.484375 -3.90625 C -3.929688 -3.90625 -3.46875 -4.050781 -3.09375 -4.34375 C -2.71875 -4.632812 -2.4375 -5.023438 -2.25 -5.515625 C -2.0625 -6.015625 -1.96875 -6.59375 -1.96875 -7.25 Z M -1.96875 -7.25 "/></g></g><g transform="translate(361.499981, 125.945293)"><g><path d="M -9.640625 -4.8125 L 0 -4.8125 L 0 -2.21875 L -16.171875 -2.21875 L -16.171875 -4.71875 L -12.265625 -4.734375 L -12.265625 -4.296875 C -13.742188 -4.796875 -14.800781 -5.503906 -15.4375 -6.421875 C -16.082031 -7.335938 -16.40625 -8.414062 -16.40625 -9.65625 C -16.40625 -10.75 -16.175781 -11.710938 -15.71875 -12.546875 C -15.269531 -13.378906 -14.585938 -14.03125 -13.671875 -14.5 C -12.765625 -14.976562 -11.613281 -15.21875 -10.21875 -15.21875 L 0 -15.21875 L 0 -12.609375 L -10.015625 -12.609375 C -11.285156 -12.609375 -12.273438 -12.28125 -12.984375 -11.625 C -13.691406 -10.976562 -14.046875 -10.082031 -14.046875 -8.9375 C -14.046875 -8.15625 -13.878906 -7.453125 -13.546875 -6.828125 C -13.210938 -6.210938 -12.71875 -5.722656 -12.0625 -5.359375 C -11.414062 -4.992188 -10.609375 -4.8125 -9.640625 -4.8125 Z M -9.640625 -4.8125 "/></g></g><g transform="translate(361.499981, 108.513654)"><g><path d="M 0 -2.21875 L -16.171875 -2.21875 L -16.171875 -4.8125 L 0 -4.8125 Z M -18.921875 -3.515625 C -18.921875 -3.023438 -19.09375 -2.601562 -19.4375 -2.25 C -19.78125 -1.894531 -20.191406 -1.71875 -20.671875 -1.71875 C -21.148438 -1.71875 -21.554688 -1.894531 -21.890625 -2.25 C -22.222656 -2.601562 -22.390625 -3.023438 -22.390625 -3.515625 C -22.390625 -4.015625 -22.222656 -4.441406 -21.890625 -4.796875 C -21.554688 -5.148438 -21.148438 -5.328125 -20.671875 -5.328125 C -20.191406 -5.328125 -19.78125 -5.148438 -19.4375 -4.796875 C -19.09375 -4.441406 -18.921875 -4.015625 -18.921875 -3.515625 Z M -18.921875 -3.515625 "/></g></g><g transform="translate(361.499981, 101.482404)"><g><path d="M -21.828125 -4.8125 L 0 -4.8125 L 0 -2.21875 L -21.828125 -2.21875 Z M -21.828125 -4.8125 "/></g></g><g transform="translate(361.499981, 94.451155)"><g><path d="M -21.828125 -4.8125 L 0 -4.8125 L 0 -2.21875 L -21.828125 -2.21875 Z M -21.828125 -4.8125 "/></g></g><g transform="translate(361.499981, 87.419905)"><g><path d="M 0.359375 -6.828125 C 0.359375 -5.796875 0.164062 -4.859375 -0.21875 -4.015625 C -0.601562 -3.179688 -1.164062 -2.519531 -1.90625 -2.03125 C -2.644531 -1.539062 -3.546875 -1.296875 -4.609375 -1.296875 C -5.535156 -1.296875 -6.285156 -1.476562 -6.859375 -1.84375 C -7.441406 -2.207031 -7.898438 -2.691406 -8.234375 -3.296875 C -8.578125 -3.910156 -8.832031 -4.585938 -9 -5.328125 C -9.164062 -6.078125 -9.296875 -6.835938 -9.390625 -7.609375 C -9.515625 -8.585938 -9.609375 -9.378906 -9.671875 -9.984375 C -9.742188 -10.585938 -9.859375 -11.03125 -10.015625 -11.3125 C -10.179688 -11.601562 -10.46875 -11.75 -10.875 -11.75 L -10.96875 -11.75 C -11.625 -11.75 -12.1875 -11.617188 -12.65625 -11.359375 C -13.125 -11.097656 -13.484375 -10.710938 -13.734375 -10.203125 C -13.984375 -9.703125 -14.109375 -9.078125 -14.109375 -8.328125 C -14.109375 -7.546875 -13.988281 -6.878906 -13.75 -6.328125 C -13.507812 -5.785156 -13.203125 -5.335938 -12.828125 -4.984375 C -12.453125 -4.640625 -12.050781 -4.398438 -11.625 -4.265625 L -12.296875 -1.734375 C -13.273438 -2.066406 -14.066406 -2.566406 -14.671875 -3.234375 C -15.273438 -3.910156 -15.710938 -4.6875 -15.984375 -5.5625 C -16.265625 -6.4375 -16.40625 -7.335938 -16.40625 -8.265625 C -16.40625 -8.890625 -16.320312 -9.550781 -16.15625 -10.25 C -16 -10.957031 -15.71875 -11.617188 -15.3125 -12.234375 C -14.914062 -12.859375 -14.347656 -13.363281 -13.609375 -13.75 C -12.878906 -14.144531 -11.929688 -14.34375 -10.765625 -14.34375 L 0 -14.34375 L 0 -11.78125 L -2.234375 -11.78125 L -2.234375 -11.625 C -1.847656 -11.445312 -1.453125 -11.15625 -1.046875 -10.75 C -0.648438 -10.351562 -0.316406 -9.832031 -0.046875 -9.1875 C 0.222656 -8.539062 0.359375 -7.753906 0.359375 -6.828125 Z M -1.96875 -7.25 C -1.96875 -8.238281 -2.15625 -9.0625 -2.53125 -9.71875 C -2.90625 -10.382812 -3.394531 -10.890625 -4 -11.234375 C -4.601562 -11.578125 -5.238281 -11.75 -5.90625 -11.75 L -8.09375 -11.75 C -7.976562 -11.644531 -7.867188 -11.421875 -7.765625 -11.078125 C -7.671875 -10.742188 -7.582031 -10.351562 -7.5 -9.90625 C -7.425781 -9.46875 -7.363281 -9.03125 -7.3125 -8.59375 C -7.257812 -8.15625 -7.210938 -7.785156 -7.171875 -7.484375 C -7.097656 -6.859375 -6.960938 -6.269531 -6.765625 -5.71875 C -6.578125 -5.175781 -6.300781 -4.738281 -5.9375 -4.40625 C -5.582031 -4.070312 -5.097656 -3.90625 -4.484375 -3.90625 C -3.929688 -3.90625 -3.46875 -4.050781 -3.09375 -4.34375 C -2.71875 -4.632812 -2.4375 -5.023438 -2.25 -5.515625 C -2.0625 -6.015625 -1.96875 -6.59375 -1.96875 -7.25 Z M -1.96875 -7.25 "/></g></g></g><g fill="#ffffff" fill-opacity="1"><g transform="translate(33.755864, 167.10387)"><g><path d="M 0.34375 -8.3125 C 0.34375 -6.945312 0 -5.75 -0.6875 -4.71875 C -1.382812 -3.6875 -2.359375 -2.878906 -3.609375 -2.296875 C -4.867188 -1.710938 -6.351562 -1.421875 -8.0625 -1.421875 C -9.757812 -1.421875 -11.234375 -1.710938 -12.484375 -2.296875 C -13.734375 -2.878906 -14.695312 -3.6875 -15.375 -4.71875 C -16.0625 -5.757812 -16.40625 -6.957031 -16.40625 -8.3125 C -16.40625 -9.28125 -16.242188 -10.078125 -15.921875 -10.703125 C -15.609375 -11.328125 -15.238281 -11.828125 -14.8125 -12.203125 C -14.382812 -12.578125 -13.988281 -12.867188 -13.625 -13.078125 L -13.625 -13.25 L -21.828125 -13.25 L -21.828125 -15.84375 L 0 -15.84375 L 0 -13.328125 L -2.484375 -13.328125 L -2.484375 -13.09375 C -2.117188 -12.875 -1.710938 -12.570312 -1.265625 -12.1875 C -0.828125 -11.800781 -0.445312 -11.296875 -0.125 -10.671875 C 0.1875 -10.046875 0.34375 -9.257812 0.34375 -8.3125 Z M -2 -8.6875 C -2 -9.675781 -2.253906 -10.515625 -2.765625 -11.203125 C -3.273438 -11.890625 -3.984375 -12.410156 -4.890625 -12.765625 C -5.804688 -13.128906 -6.867188 -13.3125 -8.078125 -13.3125 C -9.273438 -13.3125 -10.320312 -13.132812 -11.21875 -12.78125 C -12.113281 -12.425781 -12.8125 -11.90625 -13.3125 -11.21875 C -13.820312 -10.53125 -14.078125 -9.6875 -14.078125 -8.6875 C -14.078125 -7.6875 -13.816406 -6.84375 -13.296875 -6.15625 C -12.785156 -5.46875 -12.078125 -4.945312 -11.171875 -4.59375 C -10.265625 -4.238281 -9.234375 -4.0625 -8.078125 -4.0625 C -6.910156 -4.0625 -5.867188 -4.238281 -4.953125 -4.59375 C -4.035156 -4.945312 -3.3125 -5.46875 -2.78125 -6.15625 C -2.257812 -6.851562 -2 -7.695312 -2 -8.6875 Z M -2 -8.6875 "/></g></g><g transform="translate(33.755864, 149.042348)"><g><path d="M 0.359375 -8.984375 C 0.359375 -7.421875 0.00390625 -6.070312 -0.703125 -4.9375 C -1.410156 -3.800781 -2.390625 -2.929688 -3.640625 -2.328125 C -4.890625 -1.722656 -6.335938 -1.421875 -7.984375 -1.421875 C -9.628906 -1.421875 -11.085938 -1.71875 -12.359375 -2.3125 C -13.628906 -2.914062 -14.617188 -3.765625 -15.328125 -4.859375 C -16.046875 -5.960938 -16.40625 -7.242188 -16.40625 -8.703125 C -16.40625 -9.617188 -16.25 -10.5 -15.9375 -11.34375 C -15.632812 -12.195312 -15.148438 -12.960938 -14.484375 -13.640625 C -13.828125 -14.316406 -12.984375 -14.847656 -11.953125 -15.234375 C -10.921875 -15.628906 -9.6875 -15.828125 -8.25 -15.828125 L -7.234375 -15.828125 L -7.234375 -3.109375 L -9.4375 -3.109375 L -9.4375 -14.40625 L -8.640625 -13.21875 C -9.703125 -13.21875 -10.644531 -13.039062 -11.46875 -12.6875 C -12.289062 -12.34375 -12.929688 -11.835938 -13.390625 -11.171875 C -13.859375 -10.503906 -14.09375 -9.679688 -14.09375 -8.703125 C -14.09375 -7.734375 -13.859375 -6.898438 -13.390625 -6.203125 C -12.921875 -5.503906 -12.296875 -4.96875 -11.515625 -4.59375 C -10.742188 -4.226562 -9.894531 -4.046875 -8.96875 -4.046875 L -7.59375 -4.046875 C -6.40625 -4.046875 -5.390625 -4.25 -4.546875 -4.65625 C -3.710938 -5.0625 -3.078125 -5.632812 -2.640625 -6.375 C -2.203125 -7.125 -1.984375 -8 -1.984375 -9 C -1.984375 -9.65625 -2.078125 -10.25 -2.265625 -10.78125 C -2.460938 -11.320312 -2.75 -11.78125 -3.125 -12.15625 C -3.507812 -12.539062 -3.984375 -12.828125 -4.546875 -13.015625 L -3.984375 -15.5625 C -3.128906 -15.3125 -2.375 -14.882812 -1.71875 -14.28125 C -1.070312 -13.675781 -0.5625 -12.921875 -0.1875 -12.015625 C 0.175781 -11.117188 0.359375 -10.109375 0.359375 -8.984375 Z M 0.359375 -8.984375 "/></g></g><g transform="translate(33.755864, 131.859732)"><g><path d="M 0.359375 -8.984375 C 0.359375 -7.421875 0.00390625 -6.070312 -0.703125 -4.9375 C -1.410156 -3.800781 -2.390625 -2.929688 -3.640625 -2.328125 C -4.890625 -1.722656 -6.335938 -1.421875 -7.984375 -1.421875 C -9.628906 -1.421875 -11.085938 -1.71875 -12.359375 -2.3125 C -13.628906 -2.914062 -14.617188 -3.765625 -15.328125 -4.859375 C -16.046875 -5.960938 -16.40625 -7.242188 -16.40625 -8.703125 C -16.40625 -9.617188 -16.25 -10.5 -15.9375 -11.34375 C -15.632812 -12.195312 -15.148438 -12.960938 -14.484375 -13.640625 C -13.828125 -14.316406 -12.984375 -14.847656 -11.953125 -15.234375 C -10.921875 -15.628906 -9.6875 -15.828125 -8.25 -15.828125 L -7.234375 -15.828125 L -7.234375 -3.109375 L -9.4375 -3.109375 L -9.4375 -14.40625 L -8.640625 -13.21875 C -9.703125 -13.21875 -10.644531 -13.039062 -11.46875 -12.6875 C -12.289062 -12.34375 -12.929688 -11.835938 -13.390625 -11.171875 C -13.859375 -10.503906 -14.09375 -9.679688 -14.09375 -8.703125 C -14.09375 -7.734375 -13.859375 -6.898438 -13.390625 -6.203125 C -12.921875 -5.503906 -12.296875 -4.96875 -11.515625 -4.59375 C -10.742188 -4.226562 -9.894531 -4.046875 -8.96875 -4.046875 L -7.59375 -4.046875 C -6.40625 -4.046875 -5.390625 -4.25 -4.546875 -4.65625 C -3.710938 -5.0625 -3.078125 -5.632812 -2.640625 -6.375 C -2.203125 -7.125 -1.984375 -8 -1.984375 -9 C -1.984375 -9.65625 -2.078125 -10.25 -2.265625 -10.78125 C -2.460938 -11.320312 -2.75 -11.78125 -3.125 -12.15625 C -3.507812 -12.539062 -3.984375 -12.828125 -4.546875 -13.015625 L -3.984375 -15.5625 C -3.128906 -15.3125 -2.375 -14.882812 -1.71875 -14.28125 C -1.070312 -13.675781 -0.5625 -12.921875 -0.1875 -12.015625 C 0.175781 -11.117188 0.359375 -10.109375 0.359375 -8.984375 Z M 0.359375 -8.984375 "/></g></g><g transform="translate(33.755864, 114.677116)"><g><path d="M 6.125 -2.21875 L -16.171875 -2.21875 L -16.171875 -4.734375 L -13.625 -4.734375 L -13.625 -4.96875 C -13.988281 -5.175781 -14.382812 -5.46875 -14.8125 -5.84375 C -15.238281 -6.21875 -15.609375 -6.71875 -15.921875 -7.34375 C -16.242188 -7.96875 -16.40625 -8.765625 -16.40625 -9.734375 C -16.40625 -11.109375 -16.0625 -12.3125 -15.375 -13.34375 C -14.695312 -14.375 -13.734375 -15.179688 -12.484375 -15.765625 C -11.234375 -16.347656 -9.757812 -16.640625 -8.0625 -16.640625 C -6.351562 -16.640625 -4.867188 -16.347656 -3.609375 -15.765625 C -2.359375 -15.179688 -1.382812 -14.375 -0.6875 -13.34375 C 0 -12.320312 0.34375 -11.125 0.34375 -9.75 C 0.34375 -8.800781 0.1875 -8.015625 -0.125 -7.390625 C -0.445312 -6.765625 -0.828125 -6.257812 -1.265625 -5.875 C -1.710938 -5.5 -2.117188 -5.203125 -2.484375 -4.984375 L -2.484375 -4.8125 L 6.125 -4.8125 Z M -2 -9.359375 C -2 -10.359375 -2.257812 -11.203125 -2.78125 -11.890625 C -3.3125 -12.578125 -4.035156 -13.097656 -4.953125 -13.453125 C -5.867188 -13.804688 -6.910156 -13.984375 -8.078125 -13.984375 C -9.234375 -13.984375 -10.265625 -13.804688 -11.171875 -13.453125 C -12.078125 -13.109375 -12.785156 -12.59375 -13.296875 -11.90625 C -13.816406 -11.21875 -14.078125 -10.367188 -14.078125 -9.359375 C -14.078125 -8.359375 -13.820312 -7.515625 -13.3125 -6.828125 C -12.8125 -6.148438 -12.113281 -5.632812 -11.21875 -5.28125 C -10.320312 -4.925781 -9.273438 -4.75 -8.078125 -4.75 C -6.867188 -4.75 -5.804688 -4.925781 -4.890625 -5.28125 C -3.984375 -5.632812 -3.273438 -6.15625 -2.765625 -6.84375 C -2.253906 -7.539062 -2 -8.378906 -2 -9.359375 Z M -2 -9.359375 "/></g></g><g transform="translate(33.755864, 96.615594)"><g><path d="M 0.34375 -9.75 C 0.34375 -8.800781 0.1875 -8.015625 -0.125 -7.390625 C -0.445312 -6.765625 -0.828125 -6.257812 -1.265625 -5.875 C -1.710938 -5.488281 -2.117188 -5.1875 -2.484375 -4.96875 L -2.484375 -4.734375 L 0 -4.734375 L 0 -2.21875 L -21.828125 -2.21875 L -21.828125 -4.8125 L -13.625 -4.8125 L -13.625 -4.984375 C -13.988281 -5.191406 -14.382812 -5.484375 -14.8125 -5.859375 C -15.238281 -6.234375 -15.609375 -6.726562 -15.921875 -7.34375 C -16.242188 -7.96875 -16.40625 -8.765625 -16.40625 -9.734375 C -16.40625 -11.109375 -16.0625 -12.3125 -15.375 -13.34375 C -14.695312 -14.375 -13.734375 -15.179688 -12.484375 -15.765625 C -11.234375 -16.347656 -9.757812 -16.640625 -8.0625 -16.640625 C -6.351562 -16.640625 -4.867188 -16.347656 -3.609375 -15.765625 C -2.359375 -15.179688 -1.382812 -14.375 -0.6875 -13.34375 C 0 -12.320312 0.34375 -11.125 0.34375 -9.75 Z M -2 -9.359375 C -2 -10.359375 -2.257812 -11.203125 -2.78125 -11.890625 C -3.3125 -12.578125 -4.035156 -13.097656 -4.953125 -13.453125 C -5.867188 -13.804688 -6.910156 -13.984375 -8.078125 -13.984375 C -9.234375 -13.984375 -10.265625 -13.804688 -11.171875 -13.453125 C -12.078125 -13.109375 -12.785156 -12.59375 -13.296875 -11.90625 C -13.816406 -11.21875 -14.078125 -10.367188 -14.078125 -9.359375 C -14.078125 -8.359375 -13.820312 -7.515625 -13.3125 -6.828125 C -12.8125 -6.148438 -12.113281 -5.632812 -11.21875 -5.28125 C -10.320312 -4.925781 -9.273438 -4.75 -8.078125 -4.75 C -6.867188 -4.75 -5.804688 -4.925781 -4.890625 -5.28125 C -3.984375 -5.632812 -3.273438 -6.15625 -2.765625 -6.84375 C -2.253906 -7.539062 -2 -8.378906 -2 -9.359375 Z M -2 -9.359375 "/></g></g><g transform="translate(33.755864, 78.554071)"><g><path d="M -21.828125 -4.8125 L 0 -4.8125 L 0 -2.21875 L -21.828125 -2.21875 Z M -21.828125 -4.8125 "/></g></g><g transform="translate(33.755864, 71.522822)"><g><path d="M 0.21875 -7.796875 C 0.21875 -6.703125 -0.00390625 -5.734375 -0.453125 -4.890625 C -0.910156 -4.054688 -1.59375 -3.398438 -2.5 -2.921875 C -3.414062 -2.453125 -4.566406 -2.21875 -5.953125 -2.21875 L -16.171875 -2.21875 L -16.171875 -4.8125 L -6.171875 -4.8125 C -4.890625 -4.8125 -3.894531 -5.140625 -3.1875 -5.796875 C -2.476562 -6.460938 -2.125 -7.367188 -2.125 -8.515625 C -2.125 -9.285156 -2.289062 -9.976562 -2.625 -10.59375 C -2.96875 -11.21875 -3.460938 -11.707031 -4.109375 -12.0625 C -4.765625 -12.425781 -5.570312 -12.609375 -6.53125 -12.609375 L -16.171875 -12.609375 L -16.171875 -15.234375 L 0 -15.234375 L 0 -12.71875 L -3.921875 -12.71875 L -3.921875 -13.140625 C -2.421875 -12.628906 -1.351562 -11.910156 -0.71875 -10.984375 C -0.09375 -10.054688 0.21875 -8.992188 0.21875 -7.796875 Z M 0.21875 -7.796875 "/></g></g><g transform="translate(33.755864, 54.076534)"><g><path d="M 0.359375 -8.984375 C 0.359375 -7.421875 0.00390625 -6.070312 -0.703125 -4.9375 C -1.410156 -3.800781 -2.390625 -2.929688 -3.640625 -2.328125 C -4.890625 -1.722656 -6.335938 -1.421875 -7.984375 -1.421875 C -9.628906 -1.421875 -11.085938 -1.71875 -12.359375 -2.3125 C -13.628906 -2.914062 -14.617188 -3.765625 -15.328125 -4.859375 C -16.046875 -5.960938 -16.40625 -7.242188 -16.40625 -8.703125 C -16.40625 -9.617188 -16.25 -10.5 -15.9375 -11.34375 C -15.632812 -12.195312 -15.148438 -12.960938 -14.484375 -13.640625 C -13.828125 -14.316406 -12.984375 -14.847656 -11.953125 -15.234375 C -10.921875 -15.628906 -9.6875 -15.828125 -8.25 -15.828125 L -7.234375 -15.828125 L -7.234375 -3.109375 L -9.4375 -3.109375 L -9.4375 -14.40625 L -8.640625 -13.21875 C -9.703125 -13.21875 -10.644531 -13.039062 -11.46875 -12.6875 C -12.289062 -12.34375 -12.929688 -11.835938 -13.390625 -11.171875 C -13.859375 -10.503906 -14.09375 -9.679688 -14.09375 -8.703125 C -14.09375 -7.734375 -13.859375 -6.898438 -13.390625 -6.203125 C -12.921875 -5.503906 -12.296875 -4.96875 -11.515625 -4.59375 C -10.742188 -4.226562 -9.894531 -4.046875 -8.96875 -4.046875 L -7.59375 -4.046875 C -6.40625 -4.046875 -5.390625 -4.25 -4.546875 -4.65625 C -3.710938 -5.0625 -3.078125 -5.632812 -2.640625 -6.375 C -2.203125 -7.125 -1.984375 -8 -1.984375 -9 C -1.984375 -9.65625 -2.078125 -10.25 -2.265625 -10.78125 C -2.460938 -11.320312 -2.75 -11.78125 -3.125 -12.15625 C -3.507812 -12.539062 -3.984375 -12.828125 -4.546875 -13.015625 L -3.984375 -15.5625 C -3.128906 -15.3125 -2.375 -14.882812 -1.71875 -14.28125 C -1.070312 -13.675781 -0.5625 -12.921875 -0.1875 -12.015625 C 0.175781 -11.117188 0.359375 -10.109375 0.359375 -8.984375 Z M 0.359375 -8.984375 "/></g></g></g><g fill="#ffffff" fill-opacity="1"><g transform="translate(83.996092, 165.089827)"><g><path d="M 0.34375 -8.3125 C 0.34375 -6.945312 0 -5.75 -0.6875 -4.71875 C -1.382812 -3.6875 -2.359375 -2.878906 -3.609375 -2.296875 C -4.867188 -1.710938 -6.351562 -1.421875 -8.0625 -1.421875 C -9.757812 -1.421875 -11.234375 -1.710938 -12.484375 -2.296875 C -13.734375 -2.878906 -14.695312 -3.6875 -15.375 -4.71875 C -16.0625 -5.757812 -16.40625 -6.957031 -16.40625 -8.3125 C -16.40625 -9.28125 -16.242188 -10.078125 -15.921875 -10.703125 C -15.609375 -11.328125 -15.238281 -11.828125 -14.8125 -12.203125 C -14.382812 -12.578125 -13.988281 -12.867188 -13.625 -13.078125 L -13.625 -13.25 L -21.828125 -13.25 L -21.828125 -15.84375 L 0 -15.84375 L 0 -13.328125 L -2.484375 -13.328125 L -2.484375 -13.09375 C -2.117188 -12.875 -1.710938 -12.570312 -1.265625 -12.1875 C -0.828125 -11.800781 -0.445312 -11.296875 -0.125 -10.671875 C 0.1875 -10.046875 0.34375 -9.257812 0.34375 -8.3125 Z M -2 -8.6875 C -2 -9.675781 -2.253906 -10.515625 -2.765625 -11.203125 C -3.273438 -11.890625 -3.984375 -12.410156 -4.890625 -12.765625 C -5.804688 -13.128906 -6.867188 -13.3125 -8.078125 -13.3125 C -9.273438 -13.3125 -10.320312 -13.132812 -11.21875 -12.78125 C -12.113281 -12.425781 -12.8125 -11.90625 -13.3125 -11.21875 C -13.820312 -10.53125 -14.078125 -9.6875 -14.078125 -8.6875 C -14.078125 -7.6875 -13.816406 -6.84375 -13.296875 -6.15625 C -12.785156 -5.46875 -12.078125 -4.945312 -11.171875 -4.59375 C -10.265625 -4.238281 -9.234375 -4.0625 -8.078125 -4.0625 C -6.910156 -4.0625 -5.867188 -4.238281 -4.953125 -4.59375 C -4.035156 -4.945312 -3.3125 -5.46875 -2.78125 -6.15625 C -2.257812 -6.851562 -2 -7.695312 -2 -8.6875 Z M -2 -8.6875 "/></g></g><g transform="translate(83.996092, 147.028305)"><g><path d="M 0.359375 -8.984375 C 0.359375 -7.421875 0.00390625 -6.070312 -0.703125 -4.9375 C -1.410156 -3.800781 -2.390625 -2.929688 -3.640625 -2.328125 C -4.890625 -1.722656 -6.335938 -1.421875 -7.984375 -1.421875 C -9.628906 -1.421875 -11.085938 -1.71875 -12.359375 -2.3125 C -13.628906 -2.914062 -14.617188 -3.765625 -15.328125 -4.859375 C -16.046875 -5.960938 -16.40625 -7.242188 -16.40625 -8.703125 C -16.40625 -9.617188 -16.25 -10.5 -15.9375 -11.34375 C -15.632812 -12.195312 -15.148438 -12.960938 -14.484375 -13.640625 C -13.828125 -14.316406 -12.984375 -14.847656 -11.953125 -15.234375 C -10.921875 -15.628906 -9.6875 -15.828125 -8.25 -15.828125 L -7.234375 -15.828125 L -7.234375 -3.109375 L -9.4375 -3.109375 L -9.4375 -14.40625 L -8.640625 -13.21875 C -9.703125 -13.21875 -10.644531 -13.039062 -11.46875 -12.6875 C -12.289062 -12.34375 -12.929688 -11.835938 -13.390625 -11.171875 C -13.859375 -10.503906 -14.09375 -9.679688 -14.09375 -8.703125 C -14.09375 -7.734375 -13.859375 -6.898438 -13.390625 -6.203125 C -12.921875 -5.503906 -12.296875 -4.96875 -11.515625 -4.59375 C -10.742188 -4.226562 -9.894531 -4.046875 -8.96875 -4.046875 L -7.59375 -4.046875 C -6.40625 -4.046875 -5.390625 -4.25 -4.546875 -4.65625 C -3.710938 -5.0625 -3.078125 -5.632812 -2.640625 -6.375 C -2.203125 -7.125 -1.984375 -8 -1.984375 -9 C -1.984375 -9.65625 -2.078125 -10.25 -2.265625 -10.78125 C -2.460938 -11.320312 -2.75 -11.78125 -3.125 -12.15625 C -3.507812 -12.539062 -3.984375 -12.828125 -4.546875 -13.015625 L -3.984375 -15.5625 C -3.128906 -15.3125 -2.375 -14.882812 -1.71875 -14.28125 C -1.070312 -13.675781 -0.5625 -12.921875 -0.1875 -12.015625 C 0.175781 -11.117188 0.359375 -10.109375 0.359375 -8.984375 Z M 0.359375 -8.984375 "/></g></g><g transform="translate(83.996092, 129.845689)"><g><path d="M -9.640625 -4.8125 L 0 -4.8125 L 0 -2.21875 L -16.171875 -2.21875 L -16.171875 -4.71875 L -12.265625 -4.734375 L -12.265625 -4.296875 C -13.742188 -4.796875 -14.800781 -5.503906 -15.4375 -6.421875 C -16.082031 -7.335938 -16.40625 -8.414062 -16.40625 -9.65625 C -16.40625 -10.75 -16.175781 -11.710938 -15.71875 -12.546875 C -15.269531 -13.378906 -14.585938 -14.03125 -13.671875 -14.5 C -12.765625 -14.976562 -11.613281 -15.21875 -10.21875 -15.21875 L 0 -15.21875 L 0 -12.609375 L -10.015625 -12.609375 C -11.285156 -12.609375 -12.273438 -12.28125 -12.984375 -11.625 C -13.691406 -10.976562 -14.046875 -10.082031 -14.046875 -8.9375 C -14.046875 -8.15625 -13.878906 -7.453125 -13.546875 -6.828125 C -13.210938 -6.210938 -12.71875 -5.722656 -12.0625 -5.359375 C -11.414062 -4.992188 -10.609375 -4.8125 -9.640625 -4.8125 Z M -9.640625 -4.8125 "/></g></g><g transform="translate(83.996092, 112.414049)"><g><path d="M 0 -2.21875 L -16.171875 -2.21875 L -16.171875 -4.8125 L 0 -4.8125 Z M -18.921875 -3.515625 C -18.921875 -3.023438 -19.09375 -2.601562 -19.4375 -2.25 C -19.78125 -1.894531 -20.191406 -1.71875 -20.671875 -1.71875 C -21.148438 -1.71875 -21.554688 -1.894531 -21.890625 -2.25 C -22.222656 -2.601562 -22.390625 -3.023438 -22.390625 -3.515625 C -22.390625 -4.015625 -22.222656 -4.441406 -21.890625 -4.796875 C -21.554688 -5.148438 -21.148438 -5.328125 -20.671875 -5.328125 C -20.191406 -5.328125 -19.78125 -5.148438 -19.4375 -4.796875 C -19.09375 -4.441406 -18.921875 -4.015625 -18.921875 -3.515625 Z M -18.921875 -3.515625 "/></g></g><g transform="translate(83.996092, 105.3828)"><g><path d="M 0 -2.21875 L -16.171875 -2.21875 L -16.171875 -4.75 L -12.625 -4.765625 L -12.625 -4.53125 C -13.488281 -4.769531 -14.203125 -5.128906 -14.765625 -5.609375 C -15.328125 -6.097656 -15.75 -6.664062 -16.03125 -7.3125 C -16.320312 -7.96875 -16.46875 -8.644531 -16.46875 -9.34375 C -16.46875 -10.539062 -16.101562 -11.519531 -15.375 -12.28125 C -14.65625 -13.039062 -13.726562 -13.523438 -12.59375 -13.734375 L -12.59375 -13.34375 C -13.375 -13.550781 -14.054688 -13.90625 -14.640625 -14.40625 C -15.222656 -14.914062 -15.671875 -15.535156 -15.984375 -16.265625 C -16.304688 -16.992188 -16.46875 -17.789062 -16.46875 -18.65625 C -16.46875 -19.601562 -16.257812 -20.46875 -15.84375 -21.25 C -15.4375 -22.03125 -14.816406 -22.648438 -13.984375 -23.109375 C -13.160156 -23.578125 -12.113281 -23.8125 -10.84375 -23.8125 L 0 -23.8125 L 0 -21.21875 L -10.78125 -21.21875 C -11.96875 -21.21875 -12.816406 -20.882812 -13.328125 -20.21875 C -13.835938 -19.550781 -14.09375 -18.78125 -14.09375 -17.90625 C -14.09375 -17.15625 -13.9375 -16.515625 -13.625 -15.984375 C -13.320312 -15.453125 -12.898438 -15.039062 -12.359375 -14.75 C -11.816406 -14.457031 -11.195312 -14.3125 -10.5 -14.3125 L 0 -14.3125 L 0 -11.71875 L -11.046875 -11.71875 C -11.960938 -11.71875 -12.695312 -11.410156 -13.25 -10.796875 C -13.8125 -10.191406 -14.09375 -9.425781 -14.09375 -8.5 C -14.09375 -7.851562 -13.941406 -7.25 -13.640625 -6.6875 C -13.347656 -6.125 -12.90625 -5.671875 -12.3125 -5.328125 C -11.71875 -4.984375 -10.988281 -4.8125 -10.125 -4.8125 L 0 -4.8125 Z M 0 -2.21875 "/></g></g></g><g fill="#ffffff" fill-opacity="1"><g transform="translate(197.999991, 160.546864)"><g><path d="M -16.171875 -8.734375 L -13.953125 -8.734375 L -13.953125 -0.28125 L -16.171875 -0.28125 Z M -20.140625 -2.796875 L -20.140625 -5.40625 L -4.125 -5.40625 C -3.4375 -5.40625 -2.929688 -5.546875 -2.609375 -5.828125 C -2.296875 -6.117188 -2.140625 -6.609375 -2.140625 -7.296875 C -2.140625 -7.472656 -2.15625 -7.6875 -2.1875 -7.9375 C -2.21875 -8.195312 -2.242188 -8.4375 -2.265625 -8.65625 L -0.078125 -9.078125 C 0.00390625 -8.804688 0.0625 -8.5 0.09375 -8.15625 C 0.132812 -7.820312 0.15625 -7.492188 0.15625 -7.171875 C 0.15625 -5.773438 -0.195312 -4.695312 -0.90625 -3.9375 C -1.625 -3.175781 -2.628906 -2.796875 -3.921875 -2.796875 Z M -20.140625 -2.796875 "/></g></g></g><g fill="#ffffff" fill-opacity="1"><g transform="translate(197.999991, 151.12792)"><g><path d="M 0.359375 -8.984375 C 0.359375 -7.421875 0.00390625 -6.070312 -0.703125 -4.9375 C -1.410156 -3.800781 -2.390625 -2.929688 -3.640625 -2.328125 C -4.890625 -1.722656 -6.335938 -1.421875 -7.984375 -1.421875 C -9.628906 -1.421875 -11.085938 -1.71875 -12.359375 -2.3125 C -13.628906 -2.914062 -14.617188 -3.765625 -15.328125 -4.859375 C -16.046875 -5.960938 -16.40625 -7.242188 -16.40625 -8.703125 C -16.40625 -9.617188 -16.25 -10.5 -15.9375 -11.34375 C -15.632812 -12.195312 -15.148438 -12.960938 -14.484375 -13.640625 C -13.828125 -14.316406 -12.984375 -14.847656 -11.953125 -15.234375 C -10.921875 -15.628906 -9.6875 -15.828125 -8.25 -15.828125 L -7.234375 -15.828125 L -7.234375 -3.109375 L -9.4375 -3.109375 L -9.4375 -14.40625 L -8.640625 -13.21875 C -9.703125 -13.21875 -10.644531 -13.039062 -11.46875 -12.6875 C -12.289062 -12.34375 -12.929688 -11.835938 -13.390625 -11.171875 C -13.859375 -10.503906 -14.09375 -9.679688 -14.09375 -8.703125 C -14.09375 -7.734375 -13.859375 -6.898438 -13.390625 -6.203125 C -12.921875 -5.503906 -12.296875 -4.96875 -11.515625 -4.59375 C -10.742188 -4.226562 -9.894531 -4.046875 -8.96875 -4.046875 L -7.59375 -4.046875 C -6.40625 -4.046875 -5.390625 -4.25 -4.546875 -4.65625 C -3.710938 -5.0625 -3.078125 -5.632812 -2.640625 -6.375 C -2.203125 -7.125 -1.984375 -8 -1.984375 -9 C -1.984375 -9.65625 -2.078125 -10.25 -2.265625 -10.78125 C -2.460938 -11.320312 -2.75 -11.78125 -3.125 -12.15625 C -3.507812 -12.539062 -3.984375 -12.828125 -4.546875 -13.015625 L -3.984375 -15.5625 C -3.128906 -15.3125 -2.375 -14.882812 -1.71875 -14.28125 C -1.070312 -13.675781 -0.5625 -12.921875 -0.1875 -12.015625 C 0.175781 -11.117188 0.359375 -10.109375 0.359375 -8.984375 Z M 0.359375 -8.984375 "/></g></g></g><g fill="#ffffff" fill-opacity="1"><g transform="translate(197.999991, 133.681632)"><g><path d="M 0.359375 -6.828125 C 0.359375 -5.796875 0.164062 -4.859375 -0.21875 -4.015625 C -0.601562 -3.179688 -1.164062 -2.519531 -1.90625 -2.03125 C -2.644531 -1.539062 -3.546875 -1.296875 -4.609375 -1.296875 C -5.535156 -1.296875 -6.285156 -1.476562 -6.859375 -1.84375 C -7.441406 -2.207031 -7.898438 -2.691406 -8.234375 -3.296875 C -8.578125 -3.910156 -8.832031 -4.585938 -9 -5.328125 C -9.164062 -6.078125 -9.296875 -6.835938 -9.390625 -7.609375 C -9.515625 -8.585938 -9.609375 -9.378906 -9.671875 -9.984375 C -9.742188 -10.585938 -9.859375 -11.03125 -10.015625 -11.3125 C -10.179688 -11.601562 -10.46875 -11.75 -10.875 -11.75 L -10.96875 -11.75 C -11.625 -11.75 -12.1875 -11.617188 -12.65625 -11.359375 C -13.125 -11.097656 -13.484375 -10.710938 -13.734375 -10.203125 C -13.984375 -9.703125 -14.109375 -9.078125 -14.109375 -8.328125 C -14.109375 -7.546875 -13.988281 -6.878906 -13.75 -6.328125 C -13.507812 -5.785156 -13.203125 -5.335938 -12.828125 -4.984375 C -12.453125 -4.640625 -12.050781 -4.398438 -11.625 -4.265625 L -12.296875 -1.734375 C -13.273438 -2.066406 -14.066406 -2.566406 -14.671875 -3.234375 C -15.273438 -3.910156 -15.710938 -4.6875 -15.984375 -5.5625 C -16.265625 -6.4375 -16.40625 -7.335938 -16.40625 -8.265625 C -16.40625 -8.890625 -16.320312 -9.550781 -16.15625 -10.25 C -16 -10.957031 -15.71875 -11.617188 -15.3125 -12.234375 C -14.914062 -12.859375 -14.347656 -13.363281 -13.609375 -13.75 C -12.878906 -14.144531 -11.929688 -14.34375 -10.765625 -14.34375 L 0 -14.34375 L 0 -11.78125 L -2.234375 -11.78125 L -2.234375 -11.625 C -1.847656 -11.445312 -1.453125 -11.15625 -1.046875 -10.75 C -0.648438 -10.351562 -0.316406 -9.832031 -0.046875 -9.1875 C 0.222656 -8.539062 0.359375 -7.753906 0.359375 -6.828125 Z M -1.96875 -7.25 C -1.96875 -8.238281 -2.15625 -9.0625 -2.53125 -9.71875 C -2.90625 -10.382812 -3.394531 -10.890625 -4 -11.234375 C -4.601562 -11.578125 -5.238281 -11.75 -5.90625 -11.75 L -8.09375 -11.75 C -7.976562 -11.644531 -7.867188 -11.421875 -7.765625 -11.078125 C -7.671875 -10.742188 -7.582031 -10.351562 -7.5 -9.90625 C -7.425781 -9.46875 -7.363281 -9.03125 -7.3125 -8.59375 C -7.257812 -8.15625 -7.210938 -7.785156 -7.171875 -7.484375 C -7.097656 -6.859375 -6.960938 -6.269531 -6.765625 -5.71875 C -6.578125 -5.175781 -6.300781 -4.738281 -5.9375 -4.40625 C -5.582031 -4.070312 -5.097656 -3.90625 -4.484375 -3.90625 C -3.929688 -3.90625 -3.46875 -4.050781 -3.09375 -4.34375 C -2.71875 -4.632812 -2.4375 -5.023438 -2.25 -5.515625 C -2.0625 -6.015625 -1.96875 -6.59375 -1.96875 -7.25 Z M -1.96875 -7.25 "/></g></g><g transform="translate(197.999991, 117.128898)"><g><path d="M -21.828125 -4.8125 L 0 -4.8125 L 0 -2.21875 L -21.828125 -2.21875 Z M -21.828125 -4.8125 "/></g></g><g transform="translate(197.999991, 110.097649)"><g><path d="M 0.359375 -8.984375 C 0.359375 -7.421875 0.00390625 -6.070312 -0.703125 -4.9375 C -1.410156 -3.800781 -2.390625 -2.929688 -3.640625 -2.328125 C -4.890625 -1.722656 -6.335938 -1.421875 -7.984375 -1.421875 C -9.628906 -1.421875 -11.085938 -1.71875 -12.359375 -2.3125 C -13.628906 -2.914062 -14.617188 -3.765625 -15.328125 -4.859375 C -16.046875 -5.960938 -16.40625 -7.242188 -16.40625 -8.703125 C -16.40625 -9.617188 -16.25 -10.5 -15.9375 -11.34375 C -15.632812 -12.195312 -15.148438 -12.960938 -14.484375 -13.640625 C -13.828125 -14.316406 -12.984375 -14.847656 -11.953125 -15.234375 C -10.921875 -15.628906 -9.6875 -15.828125 -8.25 -15.828125 L -7.234375 -15.828125 L -7.234375 -3.109375 L -9.4375 -3.109375 L -9.4375 -14.40625 L -8.640625 -13.21875 C -9.703125 -13.21875 -10.644531 -13.039062 -11.46875 -12.6875 C -12.289062 -12.34375 -12.929688 -11.835938 -13.390625 -11.171875 C -13.859375 -10.503906 -14.09375 -9.679688 -14.09375 -8.703125 C -14.09375 -7.734375 -13.859375 -6.898438 -13.390625 -6.203125 C -12.921875 -5.503906 -12.296875 -4.96875 -11.515625 -4.59375 C -10.742188 -4.226562 -9.894531 -4.046875 -8.96875 -4.046875 L -7.59375 -4.046875 C -6.40625 -4.046875 -5.390625 -4.25 -4.546875 -4.65625 C -3.710938 -5.0625 -3.078125 -5.632812 -2.640625 -6.375 C -2.203125 -7.125 -1.984375 -8 -1.984375 -9 C -1.984375 -9.65625 -2.078125 -10.25 -2.265625 -10.78125 C -2.460938 -11.320312 -2.75 -11.78125 -3.125 -12.15625 C -3.507812 -12.539062 -3.984375 -12.828125 -4.546875 -13.015625 L -3.984375 -15.5625 C -3.128906 -15.3125 -2.375 -14.882812 -1.71875 -14.28125 C -1.070312 -13.675781 -0.5625 -12.921875 -0.1875 -12.015625 C 0.175781 -11.117188 0.359375 -10.109375 0.359375 -8.984375 Z M 0.359375 -8.984375 "/></g></g></g><g fill="#ffffff" fill-opacity="1"><g transform="translate(197.999991, 92.651361)"><g><path d="M 0.359375 -6.828125 C 0.359375 -5.796875 0.164062 -4.859375 -0.21875 -4.015625 C -0.601562 -3.179688 -1.164062 -2.519531 -1.90625 -2.03125 C -2.644531 -1.539062 -3.546875 -1.296875 -4.609375 -1.296875 C -5.535156 -1.296875 -6.285156 -1.476562 -6.859375 -1.84375 C -7.441406 -2.207031 -7.898438 -2.691406 -8.234375 -3.296875 C -8.578125 -3.910156 -8.832031 -4.585938 -9 -5.328125 C -9.164062 -6.078125 -9.296875 -6.835938 -9.390625 -7.609375 C -9.515625 -8.585938 -9.609375 -9.378906 -9.671875 -9.984375 C -9.742188 -10.585938 -9.859375 -11.03125 -10.015625 -11.3125 C -10.179688 -11.601562 -10.46875 -11.75 -10.875 -11.75 L -10.96875 -11.75 C -11.625 -11.75 -12.1875 -11.617188 -12.65625 -11.359375 C -13.125 -11.097656 -13.484375 -10.710938 -13.734375 -10.203125 C -13.984375 -9.703125 -14.109375 -9.078125 -14.109375 -8.328125 C -14.109375 -7.546875 -13.988281 -6.878906 -13.75 -6.328125 C -13.507812 -5.785156 -13.203125 -5.335938 -12.828125 -4.984375 C -12.453125 -4.640625 -12.050781 -4.398438 -11.625 -4.265625 L -12.296875 -1.734375 C -13.273438 -2.066406 -14.066406 -2.566406 -14.671875 -3.234375 C -15.273438 -3.910156 -15.710938 -4.6875 -15.984375 -5.5625 C -16.265625 -6.4375 -16.40625 -7.335938 -16.40625 -8.265625 C -16.40625 -8.890625 -16.320312 -9.550781 -16.15625 -10.25 C -16 -10.957031 -15.71875 -11.617188 -15.3125 -12.234375 C -14.914062 -12.859375 -14.347656 -13.363281 -13.609375 -13.75 C -12.878906 -14.144531 -11.929688 -14.34375 -10.765625 -14.34375 L 0 -14.34375 L 0 -11.78125 L -2.234375 -11.78125 L -2.234375 -11.625 C -1.847656 -11.445312 -1.453125 -11.15625 -1.046875 -10.75 C -0.648438 -10.351562 -0.316406 -9.832031 -0.046875 -9.1875 C 0.222656 -8.539062 0.359375 -7.753906 0.359375 -6.828125 Z M -1.96875 -7.25 C -1.96875 -8.238281 -2.15625 -9.0625 -2.53125 -9.71875 C -2.90625 -10.382812 -3.394531 -10.890625 -4 -11.234375 C -4.601562 -11.578125 -5.238281 -11.75 -5.90625 -11.75 L -8.09375 -11.75 C -7.976562 -11.644531 -7.867188 -11.421875 -7.765625 -11.078125 C -7.671875 -10.742188 -7.582031 -10.351562 -7.5 -9.90625 C -7.425781 -9.46875 -7.363281 -9.03125 -7.3125 -8.59375 C -7.257812 -8.15625 -7.210938 -7.785156 -7.171875 -7.484375 C -7.097656 -6.859375 -6.960938 -6.269531 -6.765625 -5.71875 C -6.578125 -5.175781 -6.300781 -4.738281 -5.9375 -4.40625 C -5.582031 -4.070312 -5.097656 -3.90625 -4.484375 -3.90625 C -3.929688 -3.90625 -3.46875 -4.050781 -3.09375 -4.34375 C -2.71875 -4.632812 -2.4375 -5.023438 -2.25 -5.515625 C -2.0625 -6.015625 -1.96875 -6.59375 -1.96875 -7.25 Z M -1.96875 -7.25 "/></g></g><g transform="translate(197.999991, 76.098628)"><g><path d="M -16.171875 -9.640625 L -13.953125 -9.640625 L -13.953125 -0.28125 L -16.171875 -0.28125 Z M 0 -3.40625 L -18.484375 -3.40625 C -19.378906 -3.40625 -20.132812 -3.613281 -20.75 -4.03125 C -21.375 -4.445312 -21.84375 -5 -22.15625 -5.6875 C -22.46875 -6.375 -22.625 -7.117188 -22.625 -7.921875 C -22.625 -8.484375 -22.582031 -8.957031 -22.5 -9.34375 C -22.425781 -9.738281 -22.351562 -10.019531 -22.28125 -10.1875 L -20.046875 -9.609375 C -20.085938 -9.484375 -20.128906 -9.300781 -20.171875 -9.0625 C -20.222656 -8.820312 -20.25 -8.539062 -20.25 -8.21875 C -20.25 -7.4375 -20.054688 -6.867188 -19.671875 -6.515625 C -19.285156 -6.171875 -18.707031 -6 -17.9375 -6 L 0 -6 Z M 0 -3.40625 "/></g></g></g><g fill="#ffffff" fill-opacity="1"><g transform="translate(141.749995, 163.421854)"><g><path d="M 0.359375 -7.734375 C 0.359375 -6.617188 0.191406 -5.617188 -0.140625 -4.734375 C -0.484375 -3.859375 -0.988281 -3.140625 -1.65625 -2.578125 C -2.320312 -2.015625 -3.140625 -1.648438 -4.109375 -1.484375 L -4.578125 -3.96875 C -3.671875 -4.175781 -3 -4.597656 -2.5625 -5.234375 C -2.132812 -5.878906 -1.921875 -6.703125 -1.921875 -7.703125 C -1.921875 -8.828125 -2.160156 -9.722656 -2.640625 -10.390625 C -3.128906 -11.054688 -3.707031 -11.390625 -4.375 -11.390625 C -4.945312 -11.390625 -5.414062 -11.1875 -5.78125 -10.78125 C -6.15625 -10.382812 -6.429688 -9.796875 -6.609375 -9.015625 L -7.25 -6.328125 C -7.59375 -4.847656 -8.128906 -3.75 -8.859375 -3.03125 C -9.597656 -2.3125 -10.539062 -1.953125 -11.6875 -1.953125 C -12.613281 -1.953125 -13.429688 -2.207031 -14.140625 -2.71875 C -14.847656 -3.226562 -15.398438 -3.929688 -15.796875 -4.828125 C -16.203125 -5.734375 -16.40625 -6.757812 -16.40625 -7.90625 C -16.40625 -9.019531 -16.226562 -9.976562 -15.875 -10.78125 C -15.53125 -11.582031 -15.046875 -12.226562 -14.421875 -12.71875 C -13.796875 -13.21875 -13.070312 -13.5625 -12.25 -13.75 L -11.765625 -11.375 C -12.398438 -11.195312 -12.960938 -10.835938 -13.453125 -10.296875 C -13.941406 -9.753906 -14.1875 -8.960938 -14.1875 -7.921875 C -14.1875 -6.941406 -13.960938 -6.140625 -13.515625 -5.515625 C -13.066406 -4.890625 -12.503906 -4.578125 -11.828125 -4.578125 C -11.210938 -4.578125 -10.722656 -4.796875 -10.359375 -5.234375 C -10.003906 -5.671875 -9.71875 -6.34375 -9.5 -7.25 L -8.921875 -9.734375 C -8.566406 -11.210938 -8.023438 -12.304688 -7.296875 -13.015625 C -6.578125 -13.722656 -5.65625 -14.078125 -4.53125 -14.078125 C -3.570312 -14.078125 -2.722656 -13.804688 -1.984375 -13.265625 C -1.253906 -12.734375 -0.679688 -11.988281 -0.265625 -11.03125 C 0.148438 -10.082031 0.359375 -8.984375 0.359375 -7.734375 Z M 0.359375 -7.734375 "/></g></g><g transform="translate(141.749995, 147.938457)"><g><path d="M -5.8125 -4.65625 L -9.015625 -4.65625 L -9.015625 -5.0625 L -16.171875 -12.109375 L -16.171875 -15.359375 L -8.5 -7.8125 L -8.5 -7.53125 Z M 0 -2.21875 L -21.828125 -2.21875 L -21.828125 -4.8125 L 0 -4.8125 Z M 0 -12.546875 L -7.921875 -6.265625 L -9.75 -8.109375 L 0 -15.875 Z M 0 -12.546875 "/></g></g><g transform="translate(141.749995, 131.751934)"><g><path d="M 5.984375 -2.03125 L 3.703125 -2.546875 L 3.765625 -3.109375 C 3.867188 -3.597656 3.878906 -4.039062 3.796875 -4.4375 C 3.722656 -4.84375 3.507812 -5.203125 3.15625 -5.515625 C 2.8125 -5.828125 2.285156 -6.109375 1.578125 -6.359375 L 0.046875 -6.921875 L -16.171875 -0.71875 L -16.171875 -3.5625 L -6.640625 -7.015625 C -5.691406 -7.367188 -4.742188 -7.671875 -3.796875 -7.921875 C -2.859375 -8.179688 -1.945312 -8.445312 -1.0625 -8.71875 L -1.0625 -7.828125 C -1.945312 -8.097656 -2.859375 -8.363281 -3.796875 -8.625 C -4.742188 -8.882812 -5.691406 -9.179688 -6.640625 -9.515625 L -16.171875 -13 L -16.171875 -15.8125 L 2.53125 -8.625 C 3.363281 -8.3125 4.050781 -7.925781 4.59375 -7.46875 C 5.144531 -7.019531 5.550781 -6.492188 5.8125 -5.890625 C 6.082031 -5.296875 6.21875 -4.625 6.21875 -3.875 C 6.21875 -3.445312 6.1875 -3.070312 6.125 -2.75 C 6.070312 -2.425781 6.023438 -2.1875 5.984375 -2.03125 Z M 5.984375 -2.03125 "/></g></g></g><g fill="#000000" fill-opacity="1"><g transform="translate(249.748039, 162.869125)"><g><path d="M 0.359375 -8.8125 C 0.359375 -7.34375 0.0078125 -6.050781 -0.6875 -4.9375 C -1.394531 -3.832031 -2.375 -2.96875 -3.625 -2.34375 C -4.882812 -1.726562 -6.34375 -1.421875 -8 -1.421875 C -9.675781 -1.421875 -11.144531 -1.726562 -12.40625 -2.34375 C -13.675781 -2.96875 -14.660156 -3.832031 -15.359375 -4.9375 C -16.054688 -6.050781 -16.40625 -7.34375 -16.40625 -8.8125 C -16.40625 -9.625 -16.296875 -10.382812 -16.078125 -11.09375 C -15.867188 -11.8125 -15.554688 -12.457031 -15.140625 -13.03125 C -14.734375 -13.613281 -14.238281 -14.109375 -13.65625 -14.515625 C -13.070312 -14.921875 -12.414062 -15.222656 -11.6875 -15.421875 L -11.140625 -12.890625 C -11.566406 -12.785156 -11.957031 -12.613281 -12.3125 -12.375 C -12.664062 -12.132812 -12.972656 -11.84375 -13.234375 -11.5 C -13.503906 -11.15625 -13.710938 -10.757812 -13.859375 -10.3125 C -14.003906 -9.863281 -14.078125 -9.363281 -14.078125 -8.8125 C -14.078125 -7.75 -13.800781 -6.863281 -13.25 -6.15625 C -12.695312 -5.457031 -11.960938 -4.929688 -11.046875 -4.578125 C -10.128906 -4.234375 -9.113281 -4.0625 -8 -4.0625 C -6.90625 -4.0625 -5.898438 -4.234375 -4.984375 -4.578125 C -4.078125 -4.929688 -3.347656 -5.457031 -2.796875 -6.15625 C -2.253906 -6.851562 -1.984375 -7.738281 -1.984375 -8.8125 C -1.984375 -9.363281 -2.054688 -9.863281 -2.203125 -10.3125 C -2.347656 -10.769531 -2.554688 -11.175781 -2.828125 -11.53125 C -3.097656 -11.882812 -3.421875 -12.175781 -3.796875 -12.40625 C -4.171875 -12.644531 -4.582031 -12.820312 -5.03125 -12.9375 L -4.46875 -15.46875 C -3.726562 -15.269531 -3.0625 -14.96875 -2.46875 -14.5625 C -1.882812 -14.15625 -1.378906 -13.660156 -0.953125 -13.078125 C -0.535156 -12.492188 -0.210938 -11.835938 0.015625 -11.109375 C 0.242188 -10.390625 0.359375 -9.625 0.359375 -8.8125 Z M 0.359375 -8.8125 "/></g></g><g transform="translate(249.748039, 146.05272)"><g><path d="M 0 -2.21875 L -16.171875 -2.21875 L -16.171875 -4.71875 L -13.6875 -4.71875 L -13.6875 -4.859375 C -14.5 -5.160156 -15.15625 -5.679688 -15.65625 -6.421875 C -16.15625 -7.171875 -16.40625 -8.03125 -16.40625 -9 C -16.40625 -9.195312 -16.398438 -9.421875 -16.390625 -9.671875 C -16.378906 -9.929688 -16.367188 -10.128906 -16.359375 -10.265625 L -13.734375 -10.265625 C -13.753906 -10.191406 -13.785156 -10 -13.828125 -9.6875 C -13.867188 -9.382812 -13.890625 -9.054688 -13.890625 -8.703125 C -13.890625 -7.972656 -13.734375 -7.3125 -13.421875 -6.71875 C -13.109375 -6.125 -12.664062 -5.65625 -12.09375 -5.3125 C -11.53125 -4.976562 -10.863281 -4.8125 -10.09375 -4.8125 L 0 -4.8125 Z M 0 -2.21875 "/></g></g></g><g fill="#000000" fill-opacity="1"><g transform="translate(249.748039, 135.579088)"><g><path d="M 0.359375 -8.984375 C 0.359375 -7.421875 0.00390625 -6.070312 -0.703125 -4.9375 C -1.410156 -3.800781 -2.390625 -2.929688 -3.640625 -2.328125 C -4.890625 -1.722656 -6.335938 -1.421875 -7.984375 -1.421875 C -9.628906 -1.421875 -11.085938 -1.71875 -12.359375 -2.3125 C -13.628906 -2.914062 -14.617188 -3.765625 -15.328125 -4.859375 C -16.046875 -5.960938 -16.40625 -7.242188 -16.40625 -8.703125 C -16.40625 -9.617188 -16.25 -10.5 -15.9375 -11.34375 C -15.632812 -12.195312 -15.148438 -12.960938 -14.484375 -13.640625 C -13.828125 -14.316406 -12.984375 -14.847656 -11.953125 -15.234375 C -10.921875 -15.628906 -9.6875 -15.828125 -8.25 -15.828125 L -7.234375 -15.828125 L -7.234375 -3.109375 L -9.4375 -3.109375 L -9.4375 -14.40625 L -8.640625 -13.21875 C -9.703125 -13.21875 -10.644531 -13.039062 -11.46875 -12.6875 C -12.289062 -12.34375 -12.929688 -11.835938 -13.390625 -11.171875 C -13.859375 -10.503906 -14.09375 -9.679688 -14.09375 -8.703125 C -14.09375 -7.734375 -13.859375 -6.898438 -13.390625 -6.203125 C -12.921875 -5.503906 -12.296875 -4.96875 -11.515625 -4.59375 C -10.742188 -4.226562 -9.894531 -4.046875 -8.96875 -4.046875 L -7.59375 -4.046875 C -6.40625 -4.046875 -5.390625 -4.25 -4.546875 -4.65625 C -3.710938 -5.0625 -3.078125 -5.632812 -2.640625 -6.375 C -2.203125 -7.125 -1.984375 -8 -1.984375 -9 C -1.984375 -9.65625 -2.078125 -10.25 -2.265625 -10.78125 C -2.460938 -11.320312 -2.75 -11.78125 -3.125 -12.15625 C -3.507812 -12.539062 -3.984375 -12.828125 -4.546875 -13.015625 L -3.984375 -15.5625 C -3.128906 -15.3125 -2.375 -14.882812 -1.71875 -14.28125 C -1.070312 -13.675781 -0.5625 -12.921875 -0.1875 -12.015625 C 0.175781 -11.117188 0.359375 -10.109375 0.359375 -8.984375 Z M 0.359375 -8.984375 "/></g></g></g><g fill="#000000" fill-opacity="1"><g transform="translate(249.748039, 118.1328)"><g><path d="M 0.359375 -6.828125 C 0.359375 -5.796875 0.164062 -4.859375 -0.21875 -4.015625 C -0.601562 -3.179688 -1.164062 -2.519531 -1.90625 -2.03125 C -2.644531 -1.539062 -3.546875 -1.296875 -4.609375 -1.296875 C -5.535156 -1.296875 -6.285156 -1.476562 -6.859375 -1.84375 C -7.441406 -2.207031 -7.898438 -2.691406 -8.234375 -3.296875 C -8.578125 -3.910156 -8.832031 -4.585938 -9 -5.328125 C -9.164062 -6.078125 -9.296875 -6.835938 -9.390625 -7.609375 C -9.515625 -8.585938 -9.609375 -9.378906 -9.671875 -9.984375 C -9.742188 -10.585938 -9.859375 -11.03125 -10.015625 -11.3125 C -10.179688 -11.601562 -10.46875 -11.75 -10.875 -11.75 L -10.96875 -11.75 C -11.625 -11.75 -12.1875 -11.617188 -12.65625 -11.359375 C -13.125 -11.097656 -13.484375 -10.710938 -13.734375 -10.203125 C -13.984375 -9.703125 -14.109375 -9.078125 -14.109375 -8.328125 C -14.109375 -7.546875 -13.988281 -6.878906 -13.75 -6.328125 C -13.507812 -5.785156 -13.203125 -5.335938 -12.828125 -4.984375 C -12.453125 -4.640625 -12.050781 -4.398438 -11.625 -4.265625 L -12.296875 -1.734375 C -13.273438 -2.066406 -14.066406 -2.566406 -14.671875 -3.234375 C -15.273438 -3.910156 -15.710938 -4.6875 -15.984375 -5.5625 C -16.265625 -6.4375 -16.40625 -7.335938 -16.40625 -8.265625 C -16.40625 -8.890625 -16.320312 -9.550781 -16.15625 -10.25 C -16 -10.957031 -15.71875 -11.617188 -15.3125 -12.234375 C -14.914062 -12.859375 -14.347656 -13.363281 -13.609375 -13.75 C -12.878906 -14.144531 -11.929688 -14.34375 -10.765625 -14.34375 L 0 -14.34375 L 0 -11.78125 L -2.234375 -11.78125 L -2.234375 -11.625 C -1.847656 -11.445312 -1.453125 -11.15625 -1.046875 -10.75 C -0.648438 -10.351562 -0.316406 -9.832031 -0.046875 -9.1875 C 0.222656 -8.539062 0.359375 -7.753906 0.359375 -6.828125 Z M -1.96875 -7.25 C -1.96875 -8.238281 -2.15625 -9.0625 -2.53125 -9.71875 C -2.90625 -10.382812 -3.394531 -10.890625 -4 -11.234375 C -4.601562 -11.578125 -5.238281 -11.75 -5.90625 -11.75 L -8.09375 -11.75 C -7.976562 -11.644531 -7.867188 -11.421875 -7.765625 -11.078125 C -7.671875 -10.742188 -7.582031 -10.351562 -7.5 -9.90625 C -7.425781 -9.46875 -7.363281 -9.03125 -7.3125 -8.59375 C -7.257812 -8.15625 -7.210938 -7.785156 -7.171875 -7.484375 C -7.097656 -6.859375 -6.960938 -6.269531 -6.765625 -5.71875 C -6.578125 -5.175781 -6.300781 -4.738281 -5.9375 -4.40625 C -5.582031 -4.070312 -5.097656 -3.90625 -4.484375 -3.90625 C -3.929688 -3.90625 -3.46875 -4.050781 -3.09375 -4.34375 C -2.71875 -4.632812 -2.4375 -5.023438 -2.25 -5.515625 C -2.0625 -6.015625 -1.96875 -6.59375 -1.96875 -7.25 Z M -1.96875 -7.25 "/></g></g><g transform="translate(249.748039, 101.580067)"><g><path d="M 0 -2.21875 L -16.171875 -2.21875 L -16.171875 -4.75 L -12.625 -4.765625 L -12.625 -4.53125 C -13.488281 -4.769531 -14.203125 -5.128906 -14.765625 -5.609375 C -15.328125 -6.097656 -15.75 -6.664062 -16.03125 -7.3125 C -16.320312 -7.96875 -16.46875 -8.644531 -16.46875 -9.34375 C -16.46875 -10.539062 -16.101562 -11.519531 -15.375 -12.28125 C -14.65625 -13.039062 -13.726562 -13.523438 -12.59375 -13.734375 L -12.59375 -13.34375 C -13.375 -13.550781 -14.054688 -13.90625 -14.640625 -14.40625 C -15.222656 -14.914062 -15.671875 -15.535156 -15.984375 -16.265625 C -16.304688 -16.992188 -16.46875 -17.789062 -16.46875 -18.65625 C -16.46875 -19.601562 -16.257812 -20.46875 -15.84375 -21.25 C -15.4375 -22.03125 -14.816406 -22.648438 -13.984375 -23.109375 C -13.160156 -23.578125 -12.113281 -23.8125 -10.84375 -23.8125 L 0 -23.8125 L 0 -21.21875 L -10.78125 -21.21875 C -11.96875 -21.21875 -12.816406 -20.882812 -13.328125 -20.21875 C -13.835938 -19.550781 -14.09375 -18.78125 -14.09375 -17.90625 C -14.09375 -17.15625 -13.9375 -16.515625 -13.625 -15.984375 C -13.320312 -15.453125 -12.898438 -15.039062 -12.359375 -14.75 C -11.816406 -14.457031 -11.195312 -14.3125 -10.5 -14.3125 L 0 -14.3125 L 0 -11.71875 L -11.046875 -11.71875 C -11.960938 -11.71875 -12.695312 -11.410156 -13.25 -10.796875 C -13.8125 -10.191406 -14.09375 -9.425781 -14.09375 -8.5 C -14.09375 -7.851562 -13.941406 -7.25 -13.640625 -6.6875 C -13.347656 -6.125 -12.90625 -5.671875 -12.3125 -5.328125 C -11.71875 -4.984375 -10.988281 -4.8125 -10.125 -4.8125 L 0 -4.8125 Z M 0 -2.21875 "/></g></g></g><g fill="#000000" fill-opacity="1"><g transform="translate(305.999984, 160.121077)"><g><path d="M 6.453125 -8.796875 C 6.453125 -7.609375 6.289062 -6.566406 5.96875 -5.671875 C 5.65625 -4.773438 5.222656 -4.03125 4.671875 -3.4375 C 4.117188 -2.851562 3.492188 -2.414062 2.796875 -2.125 L 1.734375 -4.34375 C 2.097656 -4.5625 2.46875 -4.847656 2.84375 -5.203125 C 3.21875 -5.554688 3.53125 -6.019531 3.78125 -6.59375 C 4.03125 -7.175781 4.15625 -7.910156 4.15625 -8.796875 C 4.15625 -10.117188 3.832031 -11.191406 3.1875 -12.015625 C 2.550781 -12.847656 1.5625 -13.265625 0.21875 -13.265625 L -2.859375 -13.265625 L -2.859375 -13.078125 C -2.484375 -12.847656 -2.082031 -12.546875 -1.65625 -12.171875 C -1.238281 -11.796875 -0.878906 -11.296875 -0.578125 -10.671875 C -0.285156 -10.046875 -0.140625 -9.253906 -0.140625 -8.296875 C -0.140625 -6.972656 -0.453125 -5.789062 -1.078125 -4.75 C -1.710938 -3.71875 -2.628906 -2.90625 -3.828125 -2.3125 C -5.023438 -1.71875 -6.460938 -1.421875 -8.140625 -1.421875 C -9.816406 -1.421875 -11.269531 -1.710938 -12.5 -2.296875 C -13.738281 -2.878906 -14.695312 -3.691406 -15.375 -4.734375 C -16.0625 -5.773438 -16.40625 -6.972656 -16.40625 -8.328125 C -16.40625 -9.296875 -16.25 -10.09375 -15.9375 -10.71875 C -15.625 -11.34375 -15.25 -11.84375 -14.8125 -12.21875 C -14.375 -12.601562 -13.96875 -12.910156 -13.59375 -13.140625 L -13.59375 -13.328125 L -16.171875 -13.328125 L -16.171875 -15.859375 L 0.34375 -15.859375 C 1.757812 -15.859375 2.921875 -15.539062 3.828125 -14.90625 C 4.734375 -14.28125 5.394531 -13.429688 5.8125 -12.359375 C 6.238281 -11.296875 6.453125 -10.109375 6.453125 -8.796875 Z M -2.46875 -8.71875 C -2.46875 -9.707031 -2.695312 -10.546875 -3.15625 -11.234375 C -3.613281 -11.921875 -4.269531 -12.441406 -5.125 -12.796875 C -5.988281 -13.148438 -7.007812 -13.328125 -8.1875 -13.328125 C -9.351562 -13.328125 -10.375 -13.148438 -11.25 -12.796875 C -12.132812 -12.453125 -12.828125 -11.929688 -13.328125 -11.234375 C -13.828125 -10.546875 -14.078125 -9.707031 -14.078125 -8.71875 C -14.078125 -7.707031 -13.820312 -6.851562 -13.3125 -6.15625 C -12.800781 -5.46875 -12.101562 -4.945312 -11.21875 -4.59375 C -10.332031 -4.238281 -9.320312 -4.0625 -8.1875 -4.0625 C -7.03125 -4.0625 -6.019531 -4.238281 -5.15625 -4.59375 C -4.300781 -4.957031 -3.640625 -5.484375 -3.171875 -6.171875 C -2.703125 -6.867188 -2.46875 -7.71875 -2.46875 -8.71875 Z M -2.46875 -8.71875 "/></g></g><g transform="translate(305.999984, 142.044907)"><g><path d="M 0.359375 -8.8125 C 0.359375 -7.34375 0.0078125 -6.050781 -0.6875 -4.9375 C -1.394531 -3.832031 -2.375 -2.96875 -3.625 -2.34375 C -4.882812 -1.726562 -6.34375 -1.421875 -8 -1.421875 C -9.675781 -1.421875 -11.144531 -1.726562 -12.40625 -2.34375 C -13.675781 -2.96875 -14.660156 -3.832031 -15.359375 -4.9375 C -16.054688 -6.050781 -16.40625 -7.34375 -16.40625 -8.8125 C -16.40625 -10.289062 -16.054688 -11.585938 -15.359375 -12.703125 C -14.660156 -13.816406 -13.675781 -14.679688 -12.40625 -15.296875 C -11.144531 -15.921875 -9.675781 -16.234375 -8 -16.234375 C -6.34375 -16.234375 -4.882812 -15.921875 -3.625 -15.296875 C -2.375 -14.679688 -1.394531 -13.816406 -0.6875 -12.703125 C 0.0078125 -11.585938 0.359375 -10.289062 0.359375 -8.8125 Z M -1.984375 -8.8125 C -1.984375 -9.894531 -2.253906 -10.785156 -2.796875 -11.484375 C -3.347656 -12.191406 -4.078125 -12.71875 -4.984375 -13.0625 C -5.898438 -13.414062 -6.90625 -13.59375 -8 -13.59375 C -9.101562 -13.59375 -10.113281 -13.414062 -11.03125 -13.0625 C -11.957031 -12.71875 -12.695312 -12.191406 -13.25 -11.484375 C -13.800781 -10.785156 -14.078125 -9.894531 -14.078125 -8.8125 C -14.078125 -7.75 -13.800781 -6.863281 -13.25 -6.15625 C -12.695312 -5.457031 -11.960938 -4.929688 -11.046875 -4.578125 C -10.128906 -4.234375 -9.113281 -4.0625 -8 -4.0625 C -6.90625 -4.0625 -5.898438 -4.234375 -4.984375 -4.578125 C -4.078125 -4.929688 -3.347656 -5.457031 -2.796875 -6.15625 C -2.253906 -6.851562 -1.984375 -7.738281 -1.984375 -8.8125 Z M -1.984375 -8.8125 "/></g></g><g transform="translate(305.999984, 124.393541)"><g><path d="M -21.828125 -4.8125 L 0 -4.8125 L 0 -2.21875 L -21.828125 -2.21875 Z M -21.828125 -4.8125 "/></g></g><g transform="translate(305.999984, 117.362291)"><g><path d="M 0.34375 -8.3125 C 0.34375 -6.945312 0 -5.75 -0.6875 -4.71875 C -1.382812 -3.6875 -2.359375 -2.878906 -3.609375 -2.296875 C -4.867188 -1.710938 -6.351562 -1.421875 -8.0625 -1.421875 C -9.757812 -1.421875 -11.234375 -1.710938 -12.484375 -2.296875 C -13.734375 -2.878906 -14.695312 -3.6875 -15.375 -4.71875 C -16.0625 -5.757812 -16.40625 -6.957031 -16.40625 -8.3125 C -16.40625 -9.28125 -16.242188 -10.078125 -15.921875 -10.703125 C -15.609375 -11.328125 -15.238281 -11.828125 -14.8125 -12.203125 C -14.382812 -12.578125 -13.988281 -12.867188 -13.625 -13.078125 L -13.625 -13.25 L -21.828125 -13.25 L -21.828125 -15.84375 L 0 -15.84375 L 0 -13.328125 L -2.484375 -13.328125 L -2.484375 -13.09375 C -2.117188 -12.875 -1.710938 -12.570312 -1.265625 -12.1875 C -0.828125 -11.800781 -0.445312 -11.296875 -0.125 -10.671875 C 0.1875 -10.046875 0.34375 -9.257812 0.34375 -8.3125 Z M -2 -8.6875 C -2 -9.675781 -2.253906 -10.515625 -2.765625 -11.203125 C -3.273438 -11.890625 -3.984375 -12.410156 -4.890625 -12.765625 C -5.804688 -13.128906 -6.867188 -13.3125 -8.078125 -13.3125 C -9.273438 -13.3125 -10.320312 -13.132812 -11.21875 -12.78125 C -12.113281 -12.425781 -12.8125 -11.90625 -13.3125 -11.21875 C -13.820312 -10.53125 -14.078125 -9.6875 -14.078125 -8.6875 C -14.078125 -7.6875 -13.816406 -6.84375 -13.296875 -6.15625 C -12.785156 -5.46875 -12.078125 -4.945312 -11.171875 -4.59375 C -10.265625 -4.238281 -9.234375 -4.0625 -8.078125 -4.0625 C -6.910156 -4.0625 -5.867188 -4.238281 -4.953125 -4.59375 C -4.035156 -4.945312 -3.3125 -5.46875 -2.78125 -6.15625 C -2.257812 -6.851562 -2 -7.695312 -2 -8.6875 Z M -2 -8.6875 "/></g></g></g></svg>